<svg xmlns="http://www.w3.org/2000/svg" viewBox="0 0 1001 307.1"><defs><style>.cls-1{fill:none;stroke:#546e7a;}.cls-1,.cls-2,.cls-3,.cls-4{stroke-miterlimit:10;}.cls-2,.cls-3,.cls-4,.cls-8{fill:#fff;}.cls-2{stroke:#01afbd;}.cls-3{stroke:#fbb040;}.cls-4{stroke:#0a84f2;}.cls-5{fill:#01afbd;}.cls-6{fill:#fbb040;}.cls-7{fill:#0a84f2;}.cls-9{fill:#2d2d2d;}.cls-10{isolation:isolate;}</style></defs><title>analytical-areas-sciencesoft</title><g id="Layer_2" data-name="Layer 2"><g id="Layer_1-2" data-name="Layer 1"><line class="cls-1" x1="112.5" y1="56.9" x2="888.5" y2="56.9"/><line class="cls-1" x1="158" y1="151.8" x2="158" y2="260.1"/><circle class="cls-2" cx="204.6" cy="56.7" r="56.2"/><circle class="cls-3" cx="56.7" cy="56.7" r="56.2"/><circle class="cls-4" cx="352.6" cy="56.7" r="56.2"/><circle class="cls-3" cx="500.5" cy="56.7" r="56.2"/><circle class="cls-4" cx="648.4" cy="56.7" r="56.2"/><circle class="cls-2" cx="796.4" cy="56.7" r="56.2"/><circle class="cls-3" cx="944.3" cy="56.7" r="56.2"/><circle class="cls-5" cx="204.6" cy="56.7" r="53"/><circle class="cls-6" cx="56.7" cy="56.7" r="53"/><circle class="cls-7" cx="352.6" cy="56.7" r="53"/><circle class="cls-6" cx="500.5" cy="56.7" r="53"/><circle class="cls-7" cx="648.4" cy="56.7" r="53"/><circle class="cls-5" cx="796.4" cy="56.7" r="53"/><circle class="cls-6" cx="944.3" cy="56.7" r="53"/><path class="cls-8" d="M231.4,57.8a1.32,1.32,0,0,1-1.3-1.3A25.48,25.48,0,0,0,210,32.3a1.33,1.33,0,0,1,.6-2.6h0a28,28,0,0,1,22.2,26.7,1.51,1.51,0,0,1-1.4,1.4Z"/><path class="cls-8" d="M225.4,55l3.9,9.4a.89.89,0,0,0,1.1.5c.1-.1.3-.2.4-.3l6.2-8a.83.83,0,0,0-.2-1.2.76.76,0,0,0-.4-.2l-10-1.3a.82.82,0,0,0-1,.7C225.3,54.7,225.4,54.9,225.4,55Z"/><path class="cls-8" d="M180.2,67.6a1.21,1.21,0,0,1-1.2-.8,27.77,27.77,0,0,1,11.1-33.3,1.44,1.44,0,0,1,1.8.5,1.39,1.39,0,0,1-.4,1.7,25.24,25.24,0,0,0-10.1,30.2,1.3,1.3,0,0,1-.8,1.7Z"/><path class="cls-8" d="M192.7,40.4l6-8.2a.83.83,0,0,0-.2-1.2.76.76,0,0,0-.4-.2L188,29.7a.89.89,0,0,0-.9,1.3l4.1,9.3a1,1,0,0,0,1.2.5A1.38,1.38,0,0,1,192.7,40.4Z"/><path class="cls-8" d="M204.9,84.7a27.55,27.55,0,0,1-9.5-1.7,1.33,1.33,0,1,1,.9-2.5,25.1,25.1,0,0,0,26.5-6,1.34,1.34,0,1,1,1.9,1.9h0A27.68,27.68,0,0,1,204.9,84.7Z"/><path class="cls-8" d="M199.3,76.7l-10.1.2a.9.9,0,0,0-.9.9c0,.2,0,.3.1.4l5.3,8.7a.84.84,0,0,0,1.2.3c.1-.1.3-.2.3-.3l4.9-8.9a.84.84,0,0,0-.3-1.2A4.32,4.32,0,0,0,199.3,76.7Z"/><path class="cls-8" d="M204.9,55.1a7.7,7.7,0,1,0-7.7-7.7A7.84,7.84,0,0,0,204.9,55.1Z"/><path class="cls-8" d="M209.7,57.5a.75.75,0,0,0-.8.1l-4,4.2-4-4.2a.61.61,0,0,0-.8-.1,11.33,11.33,0,0,0-4.5,4.7,15,15,0,0,0-1.7,6.9.67.67,0,0,0,.6.7h20.8c.4,0,.6-.3.6-.7a15,15,0,0,0-1.7-6.9A10.75,10.75,0,0,0,209.7,57.5Z"/><path class="cls-8" d="M81.6,37.5A4.41,4.41,0,0,0,73,38.9V49.3h7.3a1.54,1.54,0,0,0,1.5-1.5h0V38.9C81.7,38.5,81.7,38,81.6,37.5Z"/><path class="cls-8" d="M74.4,31.6H39.1a7.28,7.28,0,0,0-7.3,7.3V80.3a1.54,1.54,0,0,0,1.5,1.5,1.88,1.88,0,0,0,.8-.2l3.6-2.4,3.6,2.4a1.53,1.53,0,0,0,1.6,0l3.6-2.4,3.6,2.4a1.53,1.53,0,0,0,1.6,0l3.6-2.4,3.6,2.4a1.53,1.53,0,0,0,1.6,0l3.6-2.4,3.6,2.4a1.35,1.35,0,0,0,2-.4,1.08,1.08,0,0,0,.2-.8V39a7.5,7.5,0,0,1,5.3-7.1A1.14,1.14,0,0,0,74.4,31.6ZM39.1,40.5H62.5a1.5,1.5,0,0,1,0,3H39.1A1.54,1.54,0,0,1,37.6,42a1.61,1.61,0,0,1,1.5-1.5Zm1.7,19.8,3.7,1.9a3.43,3.43,0,0,1,1.9,3.1v1.2a3.44,3.44,0,0,1-2.9,3.4v1.5a1.5,1.5,0,0,1-3,0V69.9a3.45,3.45,0,0,1-3-3.4,1.47,1.47,0,0,1,2.9,0,.47.47,0,0,0,.5.5h2a.47.47,0,0,0,.5-.5h0V65.3c0-.2-.1-.4-.3-.4L39.5,63a3.43,3.43,0,0,1-1.9-3.1V58.7a3.44,3.44,0,0,1,2.9-3.4V53.8a1.5,1.5,0,0,1,3,0v1.5a3.36,3.36,0,0,1,2.9,3.4,1.5,1.5,0,0,1-3,0,.47.47,0,0,0-.5-.5h-2a.47.47,0,0,0-.5.5h0v1.2c.1.2.2.4.4.4Zm-1.7-11a1.5,1.5,0,0,1,0-3H62.5a1.5,1.5,0,0,1,0,3H39.1ZM62.6,69.9H50.8a1.5,1.5,0,0,1,0-3H62.6a1.5,1.5,0,1,1,0,3Zm0-5.8H50.8a1.5,1.5,0,0,1,0-3H62.6a1.5,1.5,0,1,1,0,3Zm0-5.9H50.8a1.5,1.5,0,0,1,0-3H62.6a1.5,1.5,0,1,1,0,3Z"/><path class="cls-8" d="M646.3,60.4a1.58,1.58,0,0,0-1.6-1.6h-7.8v6.3a2.1,2.1,0,1,1-4.2,0V58.8h-7.8a1.58,1.58,0,0,0-1.6,1.6V80.2a1.58,1.58,0,0,0,1.6,1.6h19.8a1.58,1.58,0,0,0,1.6-1.6V60.4Z"/><path class="cls-8" d="M673.4,60.4a1.58,1.58,0,0,0-1.6-1.6H664v6.3a2.1,2.1,0,1,1-4.2,0V58.8H652a1.58,1.58,0,0,0-1.6,1.6h0V80.2a1.58,1.58,0,0,0,1.6,1.6h19.8a1.58,1.58,0,0,0,1.6-1.6Z"/><path class="cls-8" d="M659.9,33.3a1.58,1.58,0,0,0-1.6-1.6h-7.8V38a2.1,2.1,0,1,1-4.2,0V31.7h-7.8a1.58,1.58,0,0,0-1.6,1.6V53.1a1.58,1.58,0,0,0,1.6,1.6h19.8a1.58,1.58,0,0,0,1.6-1.6Z"/><path class="cls-8" d="M920.2,76.7,931,65.9a16,16,0,0,0,4.1,4.1L924.3,80.8a2.9,2.9,0,1,1-4.3-3.9c.1-.1.2-.1.2-.2Z"/><path class="cls-8" d="M922.7,36.6a4.9,4.9,0,1,1,4.9,4.9,4.91,4.91,0,0,1-4.9-4.9Z"/><path class="cls-8" d="M956.1,36.6a4.9,4.9,0,1,1,4.9,4.9,4.91,4.91,0,0,1-4.9-4.9Z"/><path class="cls-8" d="M938.9,66.6a5.4,5.4,0,0,1,10.8,0h0v2.3a13.28,13.28,0,0,1-10.7,0V66.6Z"/><circle class="cls-8" cx="944.3" cy="55.3" r="2.9"/><path class="cls-8" d="M955.7,72.8a7.82,7.82,0,0,0,10.5,0,8,8,0,0,1,3,6.4v1a1.54,1.54,0,0,1-1.5,1.5H954a1.54,1.54,0,0,1-1.5-1.5h0v-1A9.44,9.44,0,0,1,955.7,72.8Z"/><path class="cls-8" d="M961,62.2a4.9,4.9,0,1,1,0,9.8,4.85,4.85,0,0,1-4.8-4.2,15.57,15.57,0,0,0,3.2-5.2A2.93,2.93,0,0,1,961,62.2Z"/><path class="cls-8" d="M922.3,42.4a7.82,7.82,0,0,0,10.5,0,12.88,12.88,0,0,1,1.6,1.7,16.56,16.56,0,0,0-5.3,7.2h-8.4a1.54,1.54,0,0,1-1.5-1.5h0v-1a8.58,8.58,0,0,1,3.1-6.4Z"/><path class="cls-8" d="M954.2,44.1a8.52,8.52,0,0,1,1.6-1.7,7.82,7.82,0,0,0,10.5,0,8,8,0,0,1,3,6.4v1a1.54,1.54,0,0,1-1.5,1.5h-8.4A15.8,15.8,0,0,0,954.2,44.1Z"/><path class="cls-8" d="M944.3,43.6a13.19,13.19,0,0,1,13.2,13.2A13,13,0,0,1,952.6,67v-.5a8.52,8.52,0,0,0-4.1-7.2,5.87,5.87,0,1,0-8.4-8.2,5.92,5.92,0,0,0,0,8.2,8.4,8.4,0,0,0-4.1,7.2V67a13.08,13.08,0,0,1-1.9-18.5,12.89,12.89,0,0,1,10.2-4.9Z"/><path class="cls-8" d="M791.7,60.2a1.54,1.54,0,0,0-1.5,1.5v8h12.3V61.8a1.54,1.54,0,0,0-1.5-1.5Z"/><path class="cls-8" d="M776,60.2a1.54,1.54,0,0,0-1.5,1.5v8.1a7.57,7.57,0,0,1,1.5-.1h10.9v-8a1.54,1.54,0,0,0-1.5-1.5H776Z"/><path class="cls-8" d="M772.8,34.6h37.8v4.2l-7.4,7.4a1.45,1.45,0,0,0,0,2.1h0l2.7,2.7v8.8a1.54,1.54,0,0,0,1.5,1.5h9.4a1.54,1.54,0,0,0,1.5-1.5h0V51l2.7-2.7a1.45,1.45,0,0,0,0-2.1h0l-7.4-7.4V34.6H820a1.5,1.5,0,0,0,0-3H772.9a1.54,1.54,0,0,0-1.5,1.5,1.45,1.45,0,0,0,1.4,1.5Zm45,12.7L816.1,49h-8.2l-1.7-1.7,5.8-5.8Z"/><path class="cls-8" d="M816.8,72.5H776a4.6,4.6,0,0,0,0,9.2h40.8a4.6,4.6,0,0,0,0-9.2ZM776,78.8a1.7,1.7,0,1,1,1.7-1.7h0a1.83,1.83,0,0,1-1.7,1.7Zm20.4,0a1.7,1.7,0,1,1,1.7-1.7h0a1.83,1.83,0,0,1-1.7,1.7Zm20.4,0a1.7,1.7,0,1,1,1.7-1.7h0a1.83,1.83,0,0,1-1.7,1.7Z"/><path class="cls-8" d="M468.8,64.7V35.6a2.9,2.9,0,0,1,2.9-2.9h29a2.9,2.9,0,0,1,2.9,2.9h0V64.7a.94.94,0,0,1-1,1H469.7A.92.92,0,0,1,468.8,64.7Zm23.4,10a6.1,6.1,0,1,1-6.1-6.1h0a6.06,6.06,0,0,1,6.1,6.1Zm-3,0a3,3,0,1,0-3,3,3,3,0,0,0,3-3ZM481,68.6H467.4a.94.94,0,0,0-1,1v3a.94.94,0,0,0,1,1h10.9a7.38,7.38,0,0,1,2.7-5Zm43,6.1a6.1,6.1,0,1,1-6.1-6.1h0a6.19,6.19,0,0,1,6.1,6.1Zm-3,0a3,3,0,1,0-3,3,3.15,3.15,0,0,0,3-3Zm13.7-5.1v3a.94.94,0,0,1-1,1h-7.9a8,8,0,0,0-15.8,0H494.1a7.77,7.77,0,0,0-2.7-4.9h15.1v-28a2.07,2.07,0,0,1,2-2h9.2a8,8,0,0,1,6.5,3.4l5.9,8.8a7.58,7.58,0,0,1,1.3,4.4V68.6h2.4a1.07,1.07,0,0,1,.9,1Zm-9.9-18.4-4.7-6.7a.91.91,0,0,0-.8-.4h-7.4a.94.94,0,0,0-1,1v6.7a.94.94,0,0,0,1,1H524a.94.94,0,0,0,1-1A1.42,1.42,0,0,0,524.8,51.2Z"/><path class="cls-9" d="M11.6,138.8H9.2v-15h8.5v2.1h-6v4.7h5.6v2.1H11.7v6.1Z"/><path class="cls-9" d="M19.9,124.4a1.16,1.16,0,0,1,.4-1,1.82,1.82,0,0,1,2,0,1.53,1.53,0,0,1,.4,1,1.28,1.28,0,0,1-.4,1,1.53,1.53,0,0,1-1,.4,1.37,1.37,0,0,1-1.4-1.4Zm2.6,14.4H20.1V127.5h2.4Z"/><path class="cls-9" d="M35.7,138.8H33.3v-7a3.68,3.68,0,0,0-.5-2,2.2,2.2,0,0,0-1.7-.6,2.53,2.53,0,0,0-2.2.9,5.49,5.49,0,0,0-.7,3v5.6H25.8V127.4h1.9l.3,1.5h.1a3.24,3.24,0,0,1,1.5-1.3,4.92,4.92,0,0,1,2.1-.4c2.7,0,4.1,1.4,4.1,4.2v7.4Z"/><path class="cls-9" d="M45.9,138.8l-.5-1.6h-.1a3.66,3.66,0,0,1-1.7,1.4,6.54,6.54,0,0,1-2.1.4,3.15,3.15,0,0,1-3.5-3.5,2.72,2.72,0,0,1,1.3-2.6,9.28,9.28,0,0,1,4-1l2-.1v-.6a2.35,2.35,0,0,0-.5-1.6,1.94,1.94,0,0,0-1.6-.5,5.08,5.08,0,0,0-1.7.3c-.6.2-1,.4-1.5.6l-.8-1.7a6.79,6.79,0,0,1,2-.7,7.61,7.61,0,0,1,2.1-.3,5.39,5.39,0,0,1,3.3.9,3.47,3.47,0,0,1,1.1,3v7.6Zm-3.6-1.7a2.82,2.82,0,0,0,2.1-.7,2.86,2.86,0,0,0,.8-2.1v-1l-1.5.1a4.18,4.18,0,0,0-2.5.6,1.82,1.82,0,0,0-.8,1.6,1.66,1.66,0,0,0,.5,1.2A2.9,2.9,0,0,0,42.3,137.1Z"/><path class="cls-9" d="M60.8,138.8H58.4v-7a3.68,3.68,0,0,0-.5-2,2.2,2.2,0,0,0-1.7-.6,2.53,2.53,0,0,0-2.2.9,5.49,5.49,0,0,0-.7,3v5.6H50.9V127.4h1.9l.3,1.5h.1a3.24,3.24,0,0,1,1.5-1.3,4.92,4.92,0,0,1,2.1-.4c2.7,0,4.1,1.4,4.1,4.2v7.4Z"/><path class="cls-9" d="M68.6,139a5,5,0,0,1-3.9-1.5,6.15,6.15,0,0,1-1.3-4.3,6.45,6.45,0,0,1,1.4-4.4,5.2,5.2,0,0,1,4-1.5,6.57,6.57,0,0,1,3.2.7l-.7,1.9a7.36,7.36,0,0,0-2.5-.6c-2,0-2.9,1.3-2.9,3.9a4.79,4.79,0,0,0,.7,2.9,2.66,2.66,0,0,0,2.1,1,6.11,6.11,0,0,0,3-.8v2.1a3.36,3.36,0,0,1-1.4.5C69.9,138.9,69.3,139,68.6,139Z"/><path class="cls-9" d="M74.1,124.4a1.16,1.16,0,0,1,.4-1,1.82,1.82,0,0,1,2,0,1.53,1.53,0,0,1,.4,1,1.28,1.28,0,0,1-.4,1,1.53,1.53,0,0,1-1,.4,1.37,1.37,0,0,1-1.4-1.4Zm2.5,14.4H74.2V127.5h2.4Z"/><path class="cls-9" d="M86.9,138.8l-.5-1.6h-.1a3.66,3.66,0,0,1-1.7,1.4,6.54,6.54,0,0,1-2.1.4,3.15,3.15,0,0,1-3.5-3.5,2.72,2.72,0,0,1,1.3-2.6,9.28,9.28,0,0,1,4-1l2-.1v-.6a2.35,2.35,0,0,0-.5-1.6,1.94,1.94,0,0,0-1.6-.5,5.08,5.08,0,0,0-1.7.3c-.6.2-1,.4-1.5.6l-.8-1.7a6.79,6.79,0,0,1,2-.7,7.61,7.61,0,0,1,2.1-.3,5.39,5.39,0,0,1,3.3.9,3.47,3.47,0,0,1,1.1,3v7.6Zm-3.6-1.7a2.82,2.82,0,0,0,2.1-.7,2.86,2.86,0,0,0,.8-2.1v-1l-1.5.1a4.18,4.18,0,0,0-2.5.6,1.82,1.82,0,0,0-.8,1.6,1.66,1.66,0,0,0,.5,1.2A2.9,2.9,0,0,0,83.3,137.1Z"/><path class="cls-9" d="M94.2,138.8H91.8v-16h2.4Z"/><path class="cls-9" d="M105.3,135.6a2.79,2.79,0,0,1-1.2,2.5,6.65,6.65,0,0,1-3.5.9,7.45,7.45,0,0,1-3.6-.7v-2.1a9.08,9.08,0,0,0,3.7.9c1.5,0,2.2-.4,2.2-1.3a1.45,1.45,0,0,0-.2-.7,1.83,1.83,0,0,0-.8-.6c-.4-.2-.9-.4-1.6-.7a8,8,0,0,1-2.7-1.5,2.72,2.72,0,0,1-.7-2,2.68,2.68,0,0,1,1.2-2.3,5.81,5.81,0,0,1,3.2-.8,10,10,0,0,1,3.8.8l-.8,1.8a8.84,8.84,0,0,0-3.1-.8c-1.3,0-1.9.4-1.9,1.1a1.05,1.05,0,0,0,.5.9,12.27,12.27,0,0,0,2.2,1,12.11,12.11,0,0,1,2,1,2.84,2.84,0,0,1,.9,1A3.77,3.77,0,0,1,105.3,135.6Z"/><path class="cls-9" d="M158.5,125.7a4,4,0,0,0-3.3,1.5,6.45,6.45,0,0,0-1.2,4.1,6.56,6.56,0,0,0,1.2,4.2,4,4,0,0,0,3.4,1.4,9.9,9.9,0,0,0,1.8-.2c.5-.1,1.2-.3,1.9-.5v2.1a12.39,12.39,0,0,1-4,.7,6.62,6.62,0,0,1-5.1-2,8.12,8.12,0,0,1-1.8-5.7,8.85,8.85,0,0,1,.9-4.1,6,6,0,0,1,2.5-2.7,7.63,7.63,0,0,1,3.8-.9,8.68,8.68,0,0,1,4.2,1l-.9,2c-.5-.2-1-.4-1.6-.6A4.84,4.84,0,0,0,158.5,125.7Z"/><path class="cls-9" d="M172.8,138.8l-.3-1.5h-.1a3.33,3.33,0,0,1-1.4,1.2,4.65,4.65,0,0,1-2.1.5,3.57,3.57,0,0,1-4.1-4.1v-7.4h2.4v7a3.68,3.68,0,0,0,.5,2,2.24,2.24,0,0,0,1.7.7,2.53,2.53,0,0,0,2.2-.9,4.74,4.74,0,0,0,.7-3v-5.6h2.4V139h-1.9Z"/><path class="cls-9" d="M185.8,135.6a2.79,2.79,0,0,1-1.2,2.5,6.65,6.65,0,0,1-3.5.9,7.45,7.45,0,0,1-3.6-.7v-2.1a9.08,9.08,0,0,0,3.7.9c1.5,0,2.2-.4,2.2-1.3a1.45,1.45,0,0,0-.2-.7,1.83,1.83,0,0,0-.8-.6c-.4-.2-.9-.4-1.6-.7a8,8,0,0,1-2.7-1.5,2.72,2.72,0,0,1-.7-2,2.68,2.68,0,0,1,1.2-2.3,5.81,5.81,0,0,1,3.2-.8,10,10,0,0,1,3.8.8l-.8,1.8a8.84,8.84,0,0,0-3.1-.8c-1.3,0-1.9.4-1.9,1.1a1.05,1.05,0,0,0,.5.9,12.27,12.27,0,0,0,2.2,1,12.11,12.11,0,0,1,2,1,2.84,2.84,0,0,1,.9,1A3.77,3.77,0,0,1,185.8,135.6Z"/><path class="cls-9" d="M192.8,137a5.66,5.66,0,0,0,1.8-.3v1.8c-.3.1-.6.2-1,.3a5.7,5.7,0,0,1-1.3.1c-2.3,0-3.4-1.2-3.4-3.6v-6.1h-1.5v-1.1l1.7-.9.8-2.4h1.5v2.5h3.2v1.8h-3.2v6.1a1.7,1.7,0,0,0,.4,1.3A1,1,0,0,0,192.8,137Z"/><path class="cls-9" d="M206.7,133.1a6.17,6.17,0,0,1-1.4,4.3,5.26,5.26,0,0,1-4,1.6,5.07,5.07,0,0,1-2.8-.7,5.54,5.54,0,0,1-1.9-2.1,6.17,6.17,0,0,1-.7-3.1,6.35,6.35,0,0,1,1.4-4.3,5.2,5.2,0,0,1,4-1.5,5,5,0,0,1,3.9,1.6A5.68,5.68,0,0,1,206.7,133.1Zm-8.2,0c0,2.6,1,3.9,2.9,3.9s2.9-1.3,2.9-3.9-1-3.9-2.9-3.9a2.46,2.46,0,0,0-2.2,1A4.79,4.79,0,0,0,198.5,133.1Z"/><path class="cls-9" d="M218.9,138.8h-2.4v-7a3.09,3.09,0,0,0-.5-1.9,1.75,1.75,0,0,0-1.5-.6,2.26,2.26,0,0,0-2,.9,5.49,5.49,0,0,0-.7,3v5.6h-2.4V127.5h1.9l.3,1.5h.1a3.53,3.53,0,0,1,1.4-1.3,4.48,4.48,0,0,1,2-.4,3.56,3.56,0,0,1,3.5,1.8h.2a3,3,0,0,1,1.4-1.3,4.65,4.65,0,0,1,2.1-.5,3.89,3.89,0,0,1,3,1,4.59,4.59,0,0,1,.9,3.1v7.4h-2.4v-7a3.09,3.09,0,0,0-.5-1.9,1.75,1.75,0,0,0-1.5-.6,2.58,2.58,0,0,0-2.1.9,4.85,4.85,0,0,0-.7,2.7v5.9Z"/><path class="cls-9" d="M234.3,139a5.44,5.44,0,0,1-4.1-1.5,5.77,5.77,0,0,1-1.5-4.3,6.63,6.63,0,0,1,1.4-4.4,4.64,4.64,0,0,1,3.8-1.6,4.51,4.51,0,0,1,3.5,1.4,5.62,5.62,0,0,1,1.3,3.8v1.3h-7.6a3.33,3.33,0,0,0,.9,2.5,3.24,3.24,0,0,0,2.4.9,11.07,11.07,0,0,0,1.9-.2,8.24,8.24,0,0,0,1.9-.6v2a6.36,6.36,0,0,1-1.8.6A14.09,14.09,0,0,1,234.3,139Zm-.5-9.9a2.14,2.14,0,0,0-1.8.7,3.34,3.34,0,0,0-.8,2.1h5.1a2.82,2.82,0,0,0-.7-2.1A2.14,2.14,0,0,0,233.8,129.1Z"/><path class="cls-9" d="M247.1,127.2a4.12,4.12,0,0,1,1.2.1l-.2,2.2a3.75,3.75,0,0,0-1.1-.1,3,3,0,0,0-2.3.9,3.33,3.33,0,0,0-.9,2.5v5.9h-2.4V127.4h1.9l.3,2h.1a4.63,4.63,0,0,1,1.5-1.6A3.29,3.29,0,0,1,247.1,127.2Z"/><path class="cls-9" d="M258.2,135.6a2.79,2.79,0,0,1-1.2,2.5,6.65,6.65,0,0,1-3.5.9,7.45,7.45,0,0,1-3.6-.7v-2.1a9.08,9.08,0,0,0,3.7.9c1.5,0,2.2-.4,2.2-1.3a1.45,1.45,0,0,0-.2-.7,1.83,1.83,0,0,0-.8-.6c-.4-.2-.9-.4-1.6-.7a8,8,0,0,1-2.7-1.5,2.72,2.72,0,0,1-.7-2A2.68,2.68,0,0,1,251,128a5.81,5.81,0,0,1,3.2-.8,10,10,0,0,1,3.8.8l-.8,1.8a8.84,8.84,0,0,0-3.1-.8c-1.3,0-1.9.4-1.9,1.1a1.05,1.05,0,0,0,.5.9,12.27,12.27,0,0,0,2.2,1,12.11,12.11,0,0,1,2,1,2.84,2.84,0,0,1,.9,1A3.77,3.77,0,0,1,258.2,135.6Z"/><path class="cls-9" d="M181.8,177.1l-4.6-12h-.1c.1,1,.1,2.1.1,3.4v8.6h-1.5V163.5h2.4l4.3,11.2h.1l4.3-11.2h2.4v13.6h-1.6v-8.7c0-1,0-2.1.1-3.3h-.1l-4.6,12Z"/><path class="cls-9" d="M198.8,177.1l-.3-1.4h-.1a4.36,4.36,0,0,1-1.5,1.3,5,5,0,0,1-1.9.3,3.65,3.65,0,0,1-2.4-.8,2.79,2.79,0,0,1-.9-2.2c0-2.1,1.6-3.1,4.9-3.2l1.7-.1v-.6a3,3,0,0,0-.5-1.8,2,2,0,0,0-1.6-.6,7.49,7.49,0,0,0-2.9.8l-.5-1.2a4.42,4.42,0,0,1,1.6-.6,5.54,5.54,0,0,1,1.8-.2,4.14,4.14,0,0,1,2.7.8,3.27,3.27,0,0,1,.9,2.6v6.9Zm-3.5-1.1a3.37,3.37,0,0,0,2.3-.8,3.11,3.11,0,0,0,.8-2.2v-.9l-1.5.1a4.33,4.33,0,0,0-2.6.6,1.82,1.82,0,0,0-.8,1.6,1.73,1.73,0,0,0,.5,1.3A2.27,2.27,0,0,0,195.3,176Z"/><path class="cls-9" d="M207.6,166.8a4.12,4.12,0,0,1,1.2.1l-.2,1.4a4.49,4.49,0,0,0-1.1-.1,2.64,2.64,0,0,0-2.1,1,3.66,3.66,0,0,0-.9,2.5v5.5H203V167h1.3l.2,1.9h.1a3.42,3.42,0,0,1,1.4-1.5A1.91,1.91,0,0,1,207.6,166.8Z"/><path class="cls-9" d="M212.3,171.9q.45-.6,1.2-1.5l3.3-3.5h1.8l-4.1,4.3,4.4,5.8H217l-3.6-4.8-1.2,1V177h-1.5V162.6h1.5v7.7a7.12,7.12,0,0,1,.1,1.6Z"/><path class="cls-9" d="M224.5,177.3a4.9,4.9,0,0,1-3.6-1.4,5.17,5.17,0,0,1-1.3-3.8,6.05,6.05,0,0,1,1.2-3.9,3.92,3.92,0,0,1,3.3-1.4,3.54,3.54,0,0,1,3,1.3,4.86,4.86,0,0,1,1.1,3.3v1h-7a3.67,3.67,0,0,0,.9,2.7,3.24,3.24,0,0,0,2.4.9,7.11,7.11,0,0,0,3.2-.7v1.4a13.13,13.13,0,0,1-1.5.5C225.8,177.2,225.2,177.3,224.5,177.3Zm-.4-9.3a2.79,2.79,0,0,0-2,.8,3.69,3.69,0,0,0-.9,2.2h5.3a3.4,3.4,0,0,0-.6-2.2A2.2,2.2,0,0,0,224.1,168Z"/><path class="cls-9" d="M234.1,176a2.2,2.2,0,0,0,.8-.1,3.54,3.54,0,0,0,.6-.1V177a6.39,6.39,0,0,1-.7.2,2.77,2.77,0,0,1-.9.1c-2,0-3-1-3-3.1v-6h-1.4v-.7l1.5-.6.6-2.2h.9v2.4h3v1.2h-3v6a2,2,0,0,0,.4,1.4A2.13,2.13,0,0,0,234.1,176Z"/><path class="cls-9" d="M237.5,164.2a1,1,0,0,1,.3-.8.73.73,0,0,1,.6-.2.71.71,0,0,1,.6.3,1.22,1.22,0,0,1,0,1.6.86.86,0,0,1-.6.3.6.6,0,0,1-.6-.3A1.1,1.1,0,0,1,237.5,164.2Zm1.6,12.9h-1.5V166.9h1.5Z"/><path class="cls-9" d="M249.2,177.1v-6.6a2.88,2.88,0,0,0-.6-1.9,2.44,2.44,0,0,0-1.8-.6,2.74,2.74,0,0,0-2.3.9,4.28,4.28,0,0,0-.7,2.8V177h-1.5V166.8h1.3l.3,1.4h.1a3.74,3.74,0,0,1,1.3-1.2,4.77,4.77,0,0,1,4.7.5,3.77,3.77,0,0,1,.9,2.8v6.6h-1.7Z"/><path class="cls-9" d="M262,166.9v1l-1.9.2a5.58,5.58,0,0,1,.5.8,3.73,3.73,0,0,1,.2,1.2,3,3,0,0,1-1,2.4,4.1,4.1,0,0,1-2.8.9,2.77,2.77,0,0,1-.9-.1,1.44,1.44,0,0,0-1,1.3.6.6,0,0,0,.3.6,2.87,2.87,0,0,0,1.2.2h1.8a3.73,3.73,0,0,1,2.5.7,2.38,2.38,0,0,1,.9,2,3,3,0,0,1-1.4,2.6,7.18,7.18,0,0,1-4,.9,5.48,5.48,0,0,1-3.1-.7,2.48,2.48,0,0,1-1.1-2.1,2.27,2.27,0,0,1,.6-1.6,2.59,2.59,0,0,1,1.7-.9,1.79,1.79,0,0,1-.7-.5,1.22,1.22,0,0,1-.3-.9,1.69,1.69,0,0,1,.3-1,3.63,3.63,0,0,1,.9-.8,2.76,2.76,0,0,1-1.3-1.1,3.45,3.45,0,0,1-.5-1.8,3.25,3.25,0,0,1,1-2.6,4.1,4.1,0,0,1,2.8-.9,5.9,5.9,0,0,1,1.4.2H262Zm-8.1,11.9a1.36,1.36,0,0,0,.7,1.3,3.74,3.74,0,0,0,2,.4,5.7,5.7,0,0,0,2.9-.6,1.8,1.8,0,0,0,.9-1.6,1.17,1.17,0,0,0-.5-1.1,4.09,4.09,0,0,0-1.9-.3h-1.8a2.54,2.54,0,0,0-1.6.5A1.75,1.75,0,0,0,253.9,178.8Zm.9-8.6a2.11,2.11,0,0,0,.6,1.6,2.31,2.31,0,0,0,1.7.5c1.5,0,2.3-.7,2.3-2.2a2.06,2.06,0,0,0-2.3-2.3,2.35,2.35,0,0,0-1.7.6A2.44,2.44,0,0,0,254.8,170.2Z"/><path class="cls-9" d="M297.1,123.8h4.5a8.43,8.43,0,0,1,4.5.9,3.3,3.3,0,0,1,1.4,2.9,3.23,3.23,0,0,1-.7,2.2,3.33,3.33,0,0,1-1.9,1.1v.1a3.25,3.25,0,0,1,3,3.6,4.16,4.16,0,0,1-1.4,3.2,5.68,5.68,0,0,1-3.9,1.1h-5.4V123.8Zm2.4,6.2h2.4a4,4,0,0,0,2.2-.5,1.83,1.83,0,0,0,.7-1.7,1.64,1.64,0,0,0-.8-1.5,4.77,4.77,0,0,0-2.4-.5h-2.1Zm0,2v4.7h2.6a3.72,3.72,0,0,0,2.3-.6,2.27,2.27,0,0,0,.8-1.9,1.88,1.88,0,0,0-.8-1.7,4.65,4.65,0,0,0-2.4-.6h-2.5Z"/><path class="cls-9" d="M316.4,127.2a4.12,4.12,0,0,1,1.2.1l-.2,2.2a3.75,3.75,0,0,0-1.1-.1,3,3,0,0,0-2.3.9,3.33,3.33,0,0,0-.9,2.5v5.9h-2.4V127.4h1.9l.3,2h.1a4.63,4.63,0,0,1,1.5-1.6A3.08,3.08,0,0,1,316.4,127.2Z"/><path class="cls-9" d="M326.5,138.8l-.5-1.6h-.1a3.66,3.66,0,0,1-1.7,1.4,6.54,6.54,0,0,1-2.1.4,3.15,3.15,0,0,1-3.5-3.5,2.72,2.72,0,0,1,1.3-2.6,9.28,9.28,0,0,1,4-1l2-.1v-.6a2.35,2.35,0,0,0-.5-1.6,1.94,1.94,0,0,0-1.6-.5,5.08,5.08,0,0,0-1.7.3c-.6.2-1,.4-1.5.6l-.8-1.7a6.79,6.79,0,0,1,2-.7,7.61,7.61,0,0,1,2.1-.3,5.39,5.39,0,0,1,3.3.9,3.47,3.47,0,0,1,1.1,3v7.6Zm-3.6-1.7a2.82,2.82,0,0,0,2.1-.7,2.86,2.86,0,0,0,.8-2.1v-1l-1.5.1a4.18,4.18,0,0,0-2.5.6,1.82,1.82,0,0,0-.8,1.6,1.66,1.66,0,0,0,.5,1.2A2.9,2.9,0,0,0,322.9,137.1Z"/><path class="cls-9" d="M341.4,138.8H339v-7a3.68,3.68,0,0,0-.5-2,2.2,2.2,0,0,0-1.7-.6,2.53,2.53,0,0,0-2.2.9,5.49,5.49,0,0,0-.7,3v5.6h-2.4V127.4h1.9l.3,1.5h.1a3.24,3.24,0,0,1,1.5-1.3,4.92,4.92,0,0,1,2.1-.4c2.7,0,4.1,1.4,4.1,4.2v7.4Z"/><path class="cls-9" d="M348.5,139a4,4,0,0,1-3.3-1.5,6.87,6.87,0,0,1-1.2-4.3,6.68,6.68,0,0,1,1.2-4.3,4.08,4.08,0,0,1,3.3-1.6,4,4,0,0,1,3.4,1.7h.1c-.1-.8-.2-1.5-.2-1.9V123h2.4v16h-1.9l-.4-1.5h-.1A4,4,0,0,1,348.5,139Zm.6-2a3,3,0,0,0,2.2-.8,4.15,4.15,0,0,0,.7-2.7v-.3a4.74,4.74,0,0,0-.7-3,2.66,2.66,0,0,0-2.2-.9,2.33,2.33,0,0,0-2,1,5,5,0,0,0-.7,2.9,4.79,4.79,0,0,0,.7,2.9A2.15,2.15,0,0,0,349.1,137Z"/><path class="cls-9" d="M365.4,135.6a2.79,2.79,0,0,1-1.2,2.5,6.65,6.65,0,0,1-3.5.9,7.45,7.45,0,0,1-3.6-.7v-2.1a9.08,9.08,0,0,0,3.7.9c1.5,0,2.2-.4,2.2-1.3a1.45,1.45,0,0,0-.2-.7,1.83,1.83,0,0,0-.8-.6c-.4-.2-.9-.4-1.6-.7a8,8,0,0,1-2.7-1.5,2.72,2.72,0,0,1-.7-2,2.68,2.68,0,0,1,1.2-2.3,5.81,5.81,0,0,1,3.2-.8,10,10,0,0,1,3.8.8l-.8,1.8a8.84,8.84,0,0,0-3.1-.8c-1.3,0-1.9.4-1.9,1.1a1.05,1.05,0,0,0,.5.9,12.27,12.27,0,0,0,2.2,1,12.11,12.11,0,0,1,2,1,2.84,2.84,0,0,1,.9,1A3.77,3.77,0,0,1,365.4,135.6Z"/><path class="cls-9" d="M380.5,138.8l-.5-1.6h-.1a3.66,3.66,0,0,1-1.7,1.4,6.54,6.54,0,0,1-2.1.4,3.15,3.15,0,0,1-3.5-3.5,2.72,2.72,0,0,1,1.3-2.6,9.28,9.28,0,0,1,4-1l2-.1v-.6a2.35,2.35,0,0,0-.5-1.6,1.94,1.94,0,0,0-1.6-.5,5.08,5.08,0,0,0-1.7.3c-.6.2-1,.4-1.5.6l-.8-1.7a6.79,6.79,0,0,1,2-.7,7.61,7.61,0,0,1,2.1-.3,5.39,5.39,0,0,1,3.3.9,3.47,3.47,0,0,1,1.1,3v7.6Zm-3.6-1.7a2.82,2.82,0,0,0,2.1-.7,2.86,2.86,0,0,0,.8-2.1v-1l-1.5.1a4.18,4.18,0,0,0-2.5.6,1.82,1.82,0,0,0-.8,1.6,1.66,1.66,0,0,0,.5,1.2A2.9,2.9,0,0,0,376.9,137.1Z"/><path class="cls-9" d="M395.4,138.8H393v-7a3.68,3.68,0,0,0-.5-2,2.2,2.2,0,0,0-1.7-.6,2.53,2.53,0,0,0-2.2.9,5.49,5.49,0,0,0-.7,3v5.6h-2.4V127.4h1.9l.3,1.5h.1a3.24,3.24,0,0,1,1.5-1.3,4.92,4.92,0,0,1,2.1-.4c2.7,0,4.1,1.4,4.1,4.2v7.4Z"/><path class="cls-9" d="M402.5,139a4,4,0,0,1-3.3-1.5,6.87,6.87,0,0,1-1.2-4.3,6.68,6.68,0,0,1,1.2-4.3,4.08,4.08,0,0,1,3.3-1.6,4,4,0,0,1,3.4,1.7h.1c-.1-.8-.2-1.5-.2-1.9V123h2.4v16h-1.9l-.4-1.5h-.1A4,4,0,0,1,402.5,139Zm.7-2a3,3,0,0,0,2.2-.8,4.15,4.15,0,0,0,.7-2.7v-.3a4.74,4.74,0,0,0-.7-3,2.66,2.66,0,0,0-2.2-.9,2.33,2.33,0,0,0-2,1,5,5,0,0,0-.7,2.9,4.79,4.79,0,0,0,.7,2.9A2.15,2.15,0,0,0,403.2,137Z"/><path class="cls-9" d="M314.9,164.2a4,4,0,0,1-3.3-1.5h-.1a16,16,0,0,1,.1,1.7V169h-2.4V152.6h1.9a6.1,6.1,0,0,1,.3,1.5h.1a4,4,0,0,1,3.4-1.7,4,4,0,0,1,3.3,1.5,6.87,6.87,0,0,1,1.2,4.3,6.68,6.68,0,0,1-1.2,4.3A3.68,3.68,0,0,1,314.9,164.2Zm-.6-9.8a2.56,2.56,0,0,0-2.1.8,4.85,4.85,0,0,0-.7,2.7v.4a4.74,4.74,0,0,0,.7,3,2.45,2.45,0,0,0,2.1.9,2.06,2.06,0,0,0,1.9-1,5.9,5.9,0,0,0,.7-2.9,4.79,4.79,0,0,0-.7-2.9A2.06,2.06,0,0,0,314.3,154.4Z"/><path class="cls-9" d="M327.9,152.4a4.12,4.12,0,0,1,1.2.1l-.2,2.2a3.75,3.75,0,0,0-1.1-.1,3,3,0,0,0-2.3.9,3.33,3.33,0,0,0-.9,2.5v5.9h-2.4V152.6h1.9l.3,2h.1A4.63,4.63,0,0,1,326,153,3.08,3.08,0,0,1,327.9,152.4Z"/><path class="cls-9" d="M341,158.3a6.17,6.17,0,0,1-1.4,4.3,5.26,5.26,0,0,1-4,1.6,5.07,5.07,0,0,1-2.8-.7,5.54,5.54,0,0,1-1.9-2.1,7.45,7.45,0,0,1-.7-3.1,6.35,6.35,0,0,1,1.4-4.3,5.2,5.2,0,0,1,4-1.5,5,5,0,0,1,3.9,1.6A5.31,5.31,0,0,1,341,158.3Zm-8.2,0c0,2.6,1,3.9,2.9,3.9s2.9-1.3,2.9-3.9-1-3.9-2.9-3.9a2.46,2.46,0,0,0-2.2,1A4.79,4.79,0,0,0,332.8,158.3Z"/><path class="cls-9" d="M347.6,164.2a4,4,0,0,1-3.3-1.5,6.87,6.87,0,0,1-1.2-4.3,6.68,6.68,0,0,1,1.2-4.3,4.08,4.08,0,0,1,3.3-1.6,4,4,0,0,1,3.4,1.7h.1c-.1-.8-.2-1.5-.2-1.9v-4.1h2.4v16h-1.9l-.4-1.5h-.1A4,4,0,0,1,347.6,164.2Zm.7-2a3,3,0,0,0,2.2-.8,4.15,4.15,0,0,0,.7-2.7v-.3a4.74,4.74,0,0,0-.7-3,2.66,2.66,0,0,0-2.2-.9,2.33,2.33,0,0,0-2,1,5,5,0,0,0-.7,2.9,4.79,4.79,0,0,0,.7,2.9A2.26,2.26,0,0,0,348.3,162.2Z"/><path class="cls-9" d="M364.7,164l-.3-1.5h-.1a3.33,3.33,0,0,1-1.4,1.2,4.65,4.65,0,0,1-2.1.5,3.57,3.57,0,0,1-4.1-4.1v-7.4h2.4v7a3.68,3.68,0,0,0,.5,2,2.24,2.24,0,0,0,1.7.7,2.53,2.53,0,0,0,2.2-.9,4.74,4.74,0,0,0,.7-3v-5.6h2.4v11.3h-1.9Z"/><path class="cls-9" d="M374.5,164.2a5,5,0,0,1-3.9-1.5,6.15,6.15,0,0,1-1.3-4.3,6.45,6.45,0,0,1,1.4-4.4,5.2,5.2,0,0,1,4-1.5,6.57,6.57,0,0,1,3.2.7l-.7,1.9a7.36,7.36,0,0,0-2.5-.6c-2,0-2.9,1.3-2.9,3.9a4.79,4.79,0,0,0,.7,2.9,2.66,2.66,0,0,0,2.1,1,6.11,6.11,0,0,0,3-.8v2.1a3.36,3.36,0,0,1-1.4.5C375.8,164.1,375.2,164.2,374.5,164.2Z"/><path class="cls-9" d="M385,162.2a5.66,5.66,0,0,0,1.8-.3v1.8c-.3.1-.6.2-1,.3a5.7,5.7,0,0,1-1.3.1c-2.3,0-3.4-1.2-3.4-3.6v-6h-1.6v-1.1l1.7-.9.8-2.4h1.5v2.5h3.2v1.8h-3.2v6.1a1.7,1.7,0,0,0,.4,1.3A1.5,1.5,0,0,0,385,162.2Z"/><path class="cls-9" d="M396.9,160.7a2.79,2.79,0,0,1-1.2,2.5,5.84,5.84,0,0,1-3.5.9,7.45,7.45,0,0,1-3.6-.7v-2.1a9.08,9.08,0,0,0,3.7.9c1.5,0,2.2-.4,2.2-1.3a1.45,1.45,0,0,0-.2-.7,1.83,1.83,0,0,0-.8-.6c-.4-.2-.9-.4-1.6-.7a8,8,0,0,1-2.7-1.5,2.72,2.72,0,0,1-.7-2,2.68,2.68,0,0,1,1.2-2.3,5.81,5.81,0,0,1,3.2-.8,10,10,0,0,1,3.8.8l-.8,1.8a8.84,8.84,0,0,0-3.1-.8c-1.3,0-1.9.4-1.9,1.1a1.05,1.05,0,0,0,.5.9,12.27,12.27,0,0,0,2.2,1,12.11,12.11,0,0,1,2,1,2.84,2.84,0,0,1,.9,1A3.43,3.43,0,0,1,396.9,160.7Z"/><path class="cls-9" d="M447.4,134.7a3.81,3.81,0,0,1-1.4,3.1,6.56,6.56,0,0,1-4,1.1,10.14,10.14,0,0,1-4.2-.8v-2.3a14.27,14.27,0,0,0,2.2.8,8.81,8.81,0,0,0,2.1.3,2.93,2.93,0,0,0,2.1-.6,1.95,1.95,0,0,0,.1-2.9,8.26,8.26,0,0,0-2.6-1.4,7.64,7.64,0,0,1-2.9-1.9,3.85,3.85,0,0,1-.8-2.6,3.67,3.67,0,0,1,1.3-3,5.18,5.18,0,0,1,3.6-1.1,11.06,11.06,0,0,1,4.3.9l-.8,2a8.42,8.42,0,0,0-3.6-.8,3,3,0,0,0-1.8.5,1.68,1.68,0,0,0-.6,1.4,3,3,0,0,0,.2,1,3,3,0,0,0,.8.8,12.11,12.11,0,0,0,2,1,12.28,12.28,0,0,1,2.4,1.3,3.34,3.34,0,0,1,1.1,1.3A5.3,5.3,0,0,1,447.4,134.7Z"/><path class="cls-9" d="M457.9,138.8l-.3-1.5h-.1a3.33,3.33,0,0,1-1.4,1.2,4.65,4.65,0,0,1-2.1.5,3.57,3.57,0,0,1-4.1-4.1v-7.4h2.4v7a3.68,3.68,0,0,0,.5,2,2.24,2.24,0,0,0,1.7.7,2.53,2.53,0,0,0,2.2-.9,4.74,4.74,0,0,0,.7-3v-5.6h2.4V139h-1.9Z"/><path class="cls-9" d="M468.7,139a4,4,0,0,1-3.3-1.5h-.1a16,16,0,0,1,.1,1.7v4.6H463V127.4h1.9a6.1,6.1,0,0,1,.3,1.5h.1a4,4,0,0,1,3.4-1.7,4,4,0,0,1,3.3,1.5,6.87,6.87,0,0,1,1.2,4.3,6.68,6.68,0,0,1-1.2,4.3A3.47,3.47,0,0,1,468.7,139Zm-.5-9.8a2.56,2.56,0,0,0-2.1.8,4.85,4.85,0,0,0-.7,2.7v.4a4.74,4.74,0,0,0,.7,3,2.58,2.58,0,0,0,2.1.9,2.06,2.06,0,0,0,1.9-1,5.9,5.9,0,0,0,.7-2.9,4.79,4.79,0,0,0-.7-2.9A2.17,2.17,0,0,0,468.2,129.2Z"/><path class="cls-9" d="M481.7,139a4,4,0,0,1-3.3-1.5h-.1a16,16,0,0,1,.1,1.7v4.6H476V127.4h1.9a6.1,6.1,0,0,1,.3,1.5h.1a4,4,0,0,1,3.4-1.7,4,4,0,0,1,3.3,1.5,6.87,6.87,0,0,1,1.2,4.3,6.68,6.68,0,0,1-1.2,4.3A3.47,3.47,0,0,1,481.7,139Zm-.5-9.8a2.56,2.56,0,0,0-2.1.8,4.85,4.85,0,0,0-.7,2.7v.4a4.74,4.74,0,0,0,.7,3,2.58,2.58,0,0,0,2.1.9,2.06,2.06,0,0,0,1.9-1,5.9,5.9,0,0,0,.7-2.9,4.79,4.79,0,0,0-.7-2.9A2.17,2.17,0,0,0,481.2,129.2Z"/><path class="cls-9" d="M491.4,138.8H489v-16h2.4Z"/><path class="cls-9" d="M493.2,127.4h2.6l2.3,6.4a14.47,14.47,0,0,1,.7,2.6h.1c.1-.4.2-.8.3-1.4s1-3.1,2.6-7.6h2.6l-4.9,12.8c-.9,2.4-2.4,3.5-4.4,3.5a8.75,8.75,0,0,1-1.6-.2v-1.9a4.87,4.87,0,0,0,1.2.1,2.62,2.62,0,0,0,2.5-2l.4-1.1Z"/><path class="cls-9" d="M516.3,139a5,5,0,0,1-3.9-1.5,6.15,6.15,0,0,1-1.3-4.3,6.45,6.45,0,0,1,1.4-4.4,5.2,5.2,0,0,1,4-1.5,6.57,6.57,0,0,1,3.2.7l-.7,1.9a7.36,7.36,0,0,0-2.5-.6c-2,0-2.9,1.3-2.9,3.9a4.79,4.79,0,0,0,.7,2.9,2.66,2.66,0,0,0,2.1,1,6.11,6.11,0,0,0,3-.8v2.1a3.36,3.36,0,0,1-1.4.5C517.5,138.9,516.9,139,516.3,139Z"/><path class="cls-9" d="M531.9,138.8h-2.4v-7a3.68,3.68,0,0,0-.5-2,2.2,2.2,0,0,0-1.7-.6,2.53,2.53,0,0,0-2.2.9,4.74,4.74,0,0,0-.7,3v5.6H522v-16h2.4v4.1a16.24,16.24,0,0,1-.1,2.1h.2a3.53,3.53,0,0,1,1.4-1.3,4.55,4.55,0,0,1,2-.5c2.7,0,4.1,1.4,4.1,4.2v7.5Z"/><path class="cls-9" d="M542.1,138.8l-.5-1.6h-.1a3.66,3.66,0,0,1-1.7,1.4,6.54,6.54,0,0,1-2.1.4,3.15,3.15,0,0,1-3.5-3.5,2.72,2.72,0,0,1,1.3-2.6,9.28,9.28,0,0,1,4-1l2-.1v-.6a2.35,2.35,0,0,0-.5-1.6,1.94,1.94,0,0,0-1.6-.5,5.08,5.08,0,0,0-1.7.3c-.6.2-1,.4-1.5.6l-.8-1.7a6.79,6.79,0,0,1,2-.7,7.61,7.61,0,0,1,2.1-.3,5.39,5.39,0,0,1,3.3.9,3.78,3.78,0,0,1,1.1,3v7.6Zm-3.6-1.7a2.82,2.82,0,0,0,2.1-.7,2.86,2.86,0,0,0,.8-2.1v-1l-1.5.1a4.18,4.18,0,0,0-2.5.6,1.82,1.82,0,0,0-.8,1.6,1.66,1.66,0,0,0,.5,1.2A2.9,2.9,0,0,0,538.5,137.1Z"/><path class="cls-9" d="M546.9,124.4a1.16,1.16,0,0,1,.4-1,1.82,1.82,0,0,1,2,0,1.53,1.53,0,0,1,.4,1,1.28,1.28,0,0,1-.4,1,1.53,1.53,0,0,1-1,.4,1.37,1.37,0,0,1-1.4-1.4Zm2.5,14.4H547V127.5h2.4Z"/><path class="cls-9" d="M562.6,138.8h-2.4v-7a3.68,3.68,0,0,0-.5-2,2.2,2.2,0,0,0-1.7-.6,2.53,2.53,0,0,0-2.2.9,5.49,5.49,0,0,0-.7,3v5.6h-2.4V127.4h1.9l.3,1.5h.1a3.24,3.24,0,0,1,1.5-1.3,4.92,4.92,0,0,1,2.1-.4c2.7,0,4.1,1.4,4.1,4.2v7.4Z"/><path class="cls-9" d="M626.9,138.8l-1.5-4.2h-5.7l-1.5,4.2h-2.6l5.6-15.1h2.7l5.6,15.1Zm-2.1-6.3-1.4-4.1c-.1-.3-.2-.7-.4-1.3s-.3-1-.4-1.3c-.2.8-.5,1.8-.8,2.8l-1.4,3.9Z"/><path class="cls-9" d="M639.4,135.6a2.79,2.79,0,0,1-1.2,2.5,6.65,6.65,0,0,1-3.5.9,7.45,7.45,0,0,1-3.6-.7v-2.1a9.08,9.08,0,0,0,3.7.9c1.5,0,2.2-.4,2.2-1.3a1.45,1.45,0,0,0-.2-.7,1.83,1.83,0,0,0-.8-.6c-.4-.2-.9-.4-1.6-.7a8,8,0,0,1-2.7-1.5,2.72,2.72,0,0,1-.7-2,2.68,2.68,0,0,1,1.2-2.3,5.81,5.81,0,0,1,3.2-.8,10,10,0,0,1,3.8.8l-.8,1.8a8.84,8.84,0,0,0-3.1-.8c-1.3,0-1.9.4-1.9,1.1a1.05,1.05,0,0,0,.5.9,12.27,12.27,0,0,0,2.2,1,12.11,12.11,0,0,1,2,1,2.84,2.84,0,0,1,.9,1A3.77,3.77,0,0,1,639.4,135.6Z"/><path class="cls-9" d="M649.7,135.6a2.79,2.79,0,0,1-1.2,2.5,6.65,6.65,0,0,1-3.5.9,7.45,7.45,0,0,1-3.6-.7v-2.1a9.08,9.08,0,0,0,3.7.9c1.5,0,2.2-.4,2.2-1.3a1.45,1.45,0,0,0-.2-.7,1.83,1.83,0,0,0-.8-.6c-.4-.2-.9-.4-1.6-.7a8,8,0,0,1-2.7-1.5,2.72,2.72,0,0,1-.7-2,2.68,2.68,0,0,1,1.2-2.3,5.81,5.81,0,0,1,3.2-.8,10,10,0,0,1,3.8.8l-.8,1.8a8.84,8.84,0,0,0-3.1-.8c-1.3,0-1.9.4-1.9,1.1a1.05,1.05,0,0,0,.5.9,12.27,12.27,0,0,0,2.2,1,12.11,12.11,0,0,1,2,1,2.84,2.84,0,0,1,.9,1A3.77,3.77,0,0,1,649.7,135.6Z"/><path class="cls-9" d="M657.1,139a5.44,5.44,0,0,1-4.1-1.5,5.77,5.77,0,0,1-1.5-4.3,6.63,6.63,0,0,1,1.4-4.4,4.64,4.64,0,0,1,3.8-1.6,4.51,4.51,0,0,1,3.5,1.4,5.62,5.62,0,0,1,1.3,3.8v1.3h-7.6a3.33,3.33,0,0,0,.9,2.5,3.24,3.24,0,0,0,2.4.9,11.07,11.07,0,0,0,1.9-.2,8.24,8.24,0,0,0,1.9-.6v2a6.36,6.36,0,0,1-1.8.6A13.43,13.43,0,0,1,657.1,139Zm-.4-9.9a2.14,2.14,0,0,0-1.8.7,3.34,3.34,0,0,0-.8,2.1h5.1a2.82,2.82,0,0,0-.7-2.1A2.14,2.14,0,0,0,656.7,129.1Z"/><path class="cls-9" d="M668.5,137a5.66,5.66,0,0,0,1.8-.3v1.8c-.3.1-.6.2-1,.3a5.7,5.7,0,0,1-1.3.1c-2.3,0-3.4-1.2-3.4-3.6v-6.1h-1.5v-1.1l1.7-.9.8-2.4h1.5v2.5h3.2v1.8h-3.2v6.1a1.7,1.7,0,0,0,.4,1.3C667.6,136.9,668,137,668.5,137Z"/><path class="cls-9" d="M680.3,135.6a2.79,2.79,0,0,1-1.2,2.5,6.65,6.65,0,0,1-3.5.9,7.45,7.45,0,0,1-3.6-.7v-2.1a9.08,9.08,0,0,0,3.7.9c1.5,0,2.2-.4,2.2-1.3a1.45,1.45,0,0,0-.2-.7,1.83,1.83,0,0,0-.8-.6c-.4-.2-.9-.4-1.6-.7a8,8,0,0,1-2.7-1.5,2.72,2.72,0,0,1-.7-2,2.68,2.68,0,0,1,1.2-2.3,5.81,5.81,0,0,1,3.2-.8,10,10,0,0,1,3.8.8l-.8,1.8a8.84,8.84,0,0,0-3.1-.8c-1.3,0-1.9.4-1.9,1.1a1.05,1.05,0,0,0,.5.9,12.27,12.27,0,0,0,2.2,1,12.11,12.11,0,0,1,2,1,2.84,2.84,0,0,1,.9,1A3.77,3.77,0,0,1,680.3,135.6Z"/><path class="cls-9" d="M730.5,138.8l-4.3-12.5h-.1c.1,1.9.2,3.6.2,5.2v7.3h-2.2v-15h3.5l4.2,11.9h.1l4.3-11.9h3.5v15h-2.4v-7.4c0-.7,0-1.7.1-2.9s.1-1.9.1-2.2h-.1l-4.5,12.5h-2.4Z"/><path class="cls-9" d="M750,138.8l-.5-1.6h0a3.66,3.66,0,0,1-1.7,1.4,6.54,6.54,0,0,1-2.1.4,3.15,3.15,0,0,1-3.5-3.5,2.72,2.72,0,0,1,1.3-2.6,9.28,9.28,0,0,1,4-1l2-.1v-.6a2.35,2.35,0,0,0-.5-1.6,1.94,1.94,0,0,0-1.6-.5,5.08,5.08,0,0,0-1.7.3c-.6.2-1,.4-1.5.6l-.8-1.7a6.79,6.79,0,0,1,2-.7,7.61,7.61,0,0,1,2.1-.3,5.39,5.39,0,0,1,3.3.9,3.78,3.78,0,0,1,1.1,3v7.6Zm-3.6-1.7a2.82,2.82,0,0,0,2.1-.7,2.86,2.86,0,0,0,.8-2.1v-1l-1.5.1a4.18,4.18,0,0,0-2.5.6,1.82,1.82,0,0,0-.8,1.6,1.66,1.66,0,0,0,.5,1.2A2.9,2.9,0,0,0,746.4,137.1Z"/><path class="cls-9" d="M764.9,138.8h-2.4v-7a3.68,3.68,0,0,0-.5-2,2.2,2.2,0,0,0-1.7-.6,2.53,2.53,0,0,0-2.2.9,5.49,5.49,0,0,0-.7,3v5.6H755V127.4h1.9l.3,1.5h.1a3.24,3.24,0,0,1,1.5-1.3,4.92,4.92,0,0,1,2.1-.4c2.7,0,4.1,1.4,4.1,4.2v7.4Z"/><path class="cls-9" d="M776.1,138.8l-.3-1.5h-.1a3.33,3.33,0,0,1-1.4,1.2,4.65,4.65,0,0,1-2.1.5,3.57,3.57,0,0,1-4.1-4.1v-7.4h2.4v7a3.68,3.68,0,0,0,.5,2,2.24,2.24,0,0,0,1.7.7,2.53,2.53,0,0,0,2.2-.9,4.74,4.74,0,0,0,.7-3v-5.6H778V139h-1.9Z"/><path class="cls-9" d="M787,129.3h-2.8v9.5h-2.4v-9.5h-1.9v-1.1l1.9-.7v-.7a4.48,4.48,0,0,1,.9-3,4,4,0,0,1,2.9-1,7.27,7.27,0,0,1,2.5.4l-.6,1.8a5.55,5.55,0,0,0-1.7-.3,1.66,1.66,0,0,0-1.2.5,2.08,2.08,0,0,0-.4,1.5v.7H787Z"/><path class="cls-9" d="M795.9,138.8l-.5-1.6h-.1a3.66,3.66,0,0,1-1.7,1.4,6.54,6.54,0,0,1-2.1.4,3.15,3.15,0,0,1-3.5-3.5,2.72,2.72,0,0,1,1.3-2.6,9.28,9.28,0,0,1,4-1l2-.1v-.6a2.35,2.35,0,0,0-.5-1.6,1.94,1.94,0,0,0-1.6-.5,5.08,5.08,0,0,0-1.7.3c-.6.2-1,.4-1.5.6l-.8-1.7a6.79,6.79,0,0,1,2-.7,7.61,7.61,0,0,1,2.1-.3,5.39,5.39,0,0,1,3.3.9,3.78,3.78,0,0,1,1.1,3v7.6Zm-3.6-1.7a2.82,2.82,0,0,0,2.1-.7,2.86,2.86,0,0,0,.8-2.1v-1l-1.5.1a4.18,4.18,0,0,0-2.5.6,1.82,1.82,0,0,0-.8,1.6,1.66,1.66,0,0,0,.5,1.2A2.9,2.9,0,0,0,792.3,137.1Z"/><path class="cls-9" d="M805.5,139a5,5,0,0,1-3.9-1.5,6.15,6.15,0,0,1-1.3-4.3,6.45,6.45,0,0,1,1.4-4.4,5.2,5.2,0,0,1,4-1.5,6.57,6.57,0,0,1,3.2.7l-.7,1.9a7.36,7.36,0,0,0-2.5-.6c-2,0-2.9,1.3-2.9,3.9a4.79,4.79,0,0,0,.7,2.9,2.66,2.66,0,0,0,2.1,1,6.11,6.11,0,0,0,3-.8v2.1a3.36,3.36,0,0,1-1.4.5C806.8,138.9,806.2,139,805.5,139Z"/><path class="cls-9" d="M816,137a5.66,5.66,0,0,0,1.8-.3v1.8c-.3.1-.6.2-1,.3a5.7,5.7,0,0,1-1.3.1c-2.3,0-3.4-1.2-3.4-3.6v-6.1h-1.5v-1.1l1.7-.9.8-2.4h1.5v2.5h3.2v1.8h-3.2v6.1a1.7,1.7,0,0,0,.4,1.3C815.1,136.9,815.5,137,816,137Z"/><path class="cls-9" d="M827.8,138.8l-.3-1.5h-.1a3.33,3.33,0,0,1-1.4,1.2,4.65,4.65,0,0,1-2.1.5,3.57,3.57,0,0,1-4.1-4.1v-7.4h2.4v7a3.68,3.68,0,0,0,.5,2,2.24,2.24,0,0,0,1.7.7,2.53,2.53,0,0,0,2.2-.9,4.74,4.74,0,0,0,.7-3v-5.6h2.4V139h-1.9Z"/><path class="cls-9" d="M838.7,127.2a4.12,4.12,0,0,1,1.2.1l-.2,2.2a3.75,3.75,0,0,0-1.1-.1,3,3,0,0,0-2.3.9,3.33,3.33,0,0,0-.9,2.5v5.9H833V127.4h1.9l.3,2h.1a4.63,4.63,0,0,1,1.5-1.6A3.08,3.08,0,0,1,838.7,127.2Z"/><path class="cls-9" d="M841.8,124.4a1.16,1.16,0,0,1,.4-1,1.82,1.82,0,0,1,2,0,1.53,1.53,0,0,1,.4,1,1.28,1.28,0,0,1-.4,1,1.53,1.53,0,0,1-1,.4,1.37,1.37,0,0,1-1.4-1.4Zm2.5,14.4h-2.4V127.5h2.4Z"/><path class="cls-9" d="M857.5,138.8h-2.4v-7a3.68,3.68,0,0,0-.5-2,2.2,2.2,0,0,0-1.7-.6,2.53,2.53,0,0,0-2.2.9,5.49,5.49,0,0,0-.7,3v5.6h-2.4V127.4h1.9l.3,1.5h.1a3.24,3.24,0,0,1,1.5-1.3,4.92,4.92,0,0,1,2.1-.4c2.7,0,4.1,1.4,4.1,4.2v7.4Z"/><path class="cls-9" d="M870.4,127.4v1.3l-1.9.4a1.88,1.88,0,0,1,.4.9,4.25,4.25,0,0,1,.2,1.1,3.49,3.49,0,0,1-1.2,2.8,4.83,4.83,0,0,1-3.3,1,3.08,3.08,0,0,1-1-.1,1.4,1.4,0,0,0-.8,1.1.55.55,0,0,0,.4.6,3.48,3.48,0,0,0,1.3.2h2a4.77,4.77,0,0,1,2.9.8,2.64,2.64,0,0,1,1,2.3,3.31,3.31,0,0,1-1.6,3,8.49,8.49,0,0,1-4.6,1,6.71,6.71,0,0,1-3.5-.8,2.56,2.56,0,0,1-1.2-2.3,2.41,2.41,0,0,1,.7-1.8,3.47,3.47,0,0,1,1.9-1,1.78,1.78,0,0,1-.8-.7,1.69,1.69,0,0,1-.3-1,1.5,1.5,0,0,1,.4-1.1,5.31,5.31,0,0,1,1.1-.9,3.22,3.22,0,0,1-1.9-3.2,3.7,3.7,0,0,1,1.2-2.9,4.83,4.83,0,0,1,3.3-1,3.4,3.4,0,0,1,1,.1c.4,0,.6.1.8.1h3.5Zm-9,13.1a1.31,1.31,0,0,0,.7,1.2,3.74,3.74,0,0,0,2,.4,5.46,5.46,0,0,0,2.9-.6,1.88,1.88,0,0,0,1-1.5,1.43,1.43,0,0,0-.5-1.1,4.6,4.6,0,0,0-2-.3h-1.8a2.54,2.54,0,0,0-1.6.5A1.89,1.89,0,0,0,861.4,140.5Zm1.1-9.4a2.35,2.35,0,0,0,.5,1.6,2.11,2.11,0,0,0,1.6.6c1.4,0,2.1-.7,2.1-2.2a2.86,2.86,0,0,0-.5-1.7,2,2,0,0,0-1.6-.6,2.11,2.11,0,0,0-1.6.6A2.86,2.86,0,0,0,862.5,131.1Z"/><g class="cls-10"><path class="cls-9" d="M943.5,138.78H941V132h-6.91v6.76h-2.45v-15h2.45v6.13H941v-6.13h2.46Z"/><path class="cls-9" d="M949.9,132.79v6h-2.45v-15h4.23a7,7,0,0,1,4.3,1.09,3.9,3.9,0,0,1,1.39,3.28,4.1,4.1,0,0,1-2.91,4l4.23,6.63h-2.79l-3.59-6Zm0-2h1.7a3.89,3.89,0,0,0,2.48-.64,2.31,2.31,0,0,0,.77-1.89,2,2,0,0,0-.83-1.83,4.55,4.55,0,0,0-2.5-.55H949.9Z"/></g><circle class="cls-5" cx="158.2" cy="169.8" r="7.7"/><path class="cls-9" d="M183.5,203.8a3.29,3.29,0,0,1-1.3,2.8,5.4,5.4,0,0,1-3.5,1,9.19,9.19,0,0,1-3.7-.6v-1.5l1.8.6a13.67,13.67,0,0,0,1.9.2,4,4,0,0,0,2.4-.6,2.33,2.33,0,0,0,.5-2.9,2.36,2.36,0,0,0-.9-.8,13.69,13.69,0,0,0-2-.9,6.59,6.59,0,0,1-2.7-1.6,3.65,3.65,0,0,1-.8-2.4,3,3,0,0,1,1.2-2.5,5,5,0,0,1,3.1-.9,9,9,0,0,1,3.7.7l-.5,1.4a7.84,7.84,0,0,0-3.3-.7,3.94,3.94,0,0,0-2,.5,1.8,1.8,0,0,0-.7,1.5,2.13,2.13,0,0,0,.3,1.2,2.36,2.36,0,0,0,.9.8,7.13,7.13,0,0,0,1.9.8,8.23,8.23,0,0,1,2.9,1.6A3.78,3.78,0,0,1,183.5,203.8Z"/><path class="cls-9" d="M192.5,207.4l-.3-1.4h-.1a4.36,4.36,0,0,1-1.5,1.3,5,5,0,0,1-1.9.3,3.65,3.65,0,0,1-2.4-.8,2.79,2.79,0,0,1-.9-2.2c0-2.1,1.6-3.1,4.9-3.2l1.7-.1v-.6a3,3,0,0,0-.5-1.8,2,2,0,0,0-1.6-.6,7.49,7.49,0,0,0-2.9.8l-.5-1.2a4.42,4.42,0,0,1,1.6-.6,5.54,5.54,0,0,1,1.8-.2,4.14,4.14,0,0,1,2.7.8,3.27,3.27,0,0,1,.9,2.6v6.9Zm-3.5-1a3.37,3.37,0,0,0,2.3-.8,3.11,3.11,0,0,0,.8-2.2v-.9h-1.6a4.33,4.33,0,0,0-2.6.6,1.82,1.82,0,0,0-.8,1.6,1.73,1.73,0,0,0,.5,1.3A2.59,2.59,0,0,0,189,206.4Z"/><path class="cls-9" d="M198.2,207.4h-1.5V193h1.5Z"/><path class="cls-9" d="M205.6,207.6a4.9,4.9,0,0,1-3.6-1.4,5.17,5.17,0,0,1-1.3-3.8,6.05,6.05,0,0,1,1.2-3.9,3.92,3.92,0,0,1,3.3-1.4,3.54,3.54,0,0,1,3,1.3,5,5,0,0,1,1.1,3.3v1h-7a3.67,3.67,0,0,0,.9,2.7,3.24,3.24,0,0,0,2.4.9,7.11,7.11,0,0,0,3.2-.7V207a13.13,13.13,0,0,1-1.5.5A8.11,8.11,0,0,1,205.6,207.6Zm-.4-9.2a2.79,2.79,0,0,0-2,.8,3.69,3.69,0,0,0-.9,2.2h5.3a3.4,3.4,0,0,0-.6-2.2A2,2,0,0,0,205.2,198.4Z"/><path class="cls-9" d="M218.5,204.7a2.66,2.66,0,0,1-1.1,2.2,5.1,5.1,0,0,1-3,.8,7.31,7.31,0,0,1-3.2-.6v-1.4c.5.2,1,.4,1.6.6a10,10,0,0,0,1.6.2,3.58,3.58,0,0,0,1.9-.4,1.31,1.31,0,0,0,.6-1.2,1.39,1.39,0,0,0-.5-1,7.12,7.12,0,0,0-2-1c-.9-.4-1.6-.7-2-.9a3.82,3.82,0,0,1-.9-.9,2.13,2.13,0,0,1-.3-1.2,2.33,2.33,0,0,1,1-2,4.65,4.65,0,0,1,2.8-.7,7.11,7.11,0,0,1,3.2.7l-.5,1.3a7.44,7.44,0,0,0-2.8-.6,4,4,0,0,0-1.7.3,1,1,0,0,0-.6.9,1.45,1.45,0,0,0,.2.7,1.28,1.28,0,0,0,.7.5c.3.2.9.4,1.8.8a6.35,6.35,0,0,1,2.4,1.3A1.62,1.62,0,0,1,218.5,204.7Z"/><circle class="cls-5" cx="158.2" cy="200.1" r="7.7"/><path class="cls-9" d="M181.6,225.4a4.26,4.26,0,0,0-3.5,1.5,5.94,5.94,0,0,0-1.3,4.1,6.26,6.26,0,0,0,1.2,4.1,4.33,4.33,0,0,0,3.6,1.5,13.94,13.94,0,0,0,3.2-.5v1.4a8.94,8.94,0,0,1-3.5.5,5.88,5.88,0,0,1-4.6-1.8,7.37,7.37,0,0,1-1.6-5.2,8.74,8.74,0,0,1,.8-3.7,4.89,4.89,0,0,1,2.3-2.4,6.51,6.51,0,0,1,3.5-.9,8.41,8.41,0,0,1,3.7.8l-.7,1.4A6.81,6.81,0,0,0,181.6,225.4Z"/><path class="cls-9" d="M188.7,227.6v6.6a2.88,2.88,0,0,0,.6,1.9,2.44,2.44,0,0,0,1.8.6,2.74,2.74,0,0,0,2.3-.9,4.28,4.28,0,0,0,.7-2.8v-5.3h1.5v10.2h-1.3l-.2-1.4H194a3.74,3.74,0,0,1-1.3,1.2,4.06,4.06,0,0,1-1.9.4,3.93,3.93,0,0,1-2.8-.9,3.77,3.77,0,0,1-.9-2.8v-6.7h1.6Z"/><path class="cls-9" d="M205.4,235a2.66,2.66,0,0,1-1.1,2.2,5.1,5.1,0,0,1-3,.8,7.31,7.31,0,0,1-3.2-.6V236c.5.2,1,.4,1.6.6a10,10,0,0,0,1.6.2,3.58,3.58,0,0,0,1.9-.4,1.31,1.31,0,0,0,.6-1.2,1.39,1.39,0,0,0-.5-1,7.12,7.12,0,0,0-2-1c-.9-.4-1.6-.7-2-.9a3.82,3.82,0,0,1-.9-.9,2.13,2.13,0,0,1-.3-1.2,2.33,2.33,0,0,1,1-2,4.65,4.65,0,0,1,2.8-.7,7.11,7.11,0,0,1,3.2.7l-.5,1.3a7.44,7.44,0,0,0-2.8-.6,4,4,0,0,0-1.7.3,1,1,0,0,0-.6.9,1.45,1.45,0,0,0,.2.7,1.28,1.28,0,0,0,.7.5c.3.2.9.4,1.8.8a6.35,6.35,0,0,1,2.4,1.3A1.94,1.94,0,0,1,205.4,235Z"/><path class="cls-9" d="M211.5,236.7a2.2,2.2,0,0,0,.8-.1,3.54,3.54,0,0,0,.6-.1v1.2a6.39,6.39,0,0,1-.7.2,2.77,2.77,0,0,1-.9.1c-2,0-3-1-3-3.1v-6h-1.5v-.7l1.5-.6.6-2.2h.9v2.4h3V229h-3v6a2,2,0,0,0,.4,1.4A5,5,0,0,0,211.5,236.7Z"/><path class="cls-9" d="M223.5,232.7a5.26,5.26,0,0,1-1.3,3.9,4.51,4.51,0,0,1-3.5,1.4,4.75,4.75,0,0,1-2.4-.6,4,4,0,0,1-1.6-1.8,6.09,6.09,0,0,1-.6-2.8,5.87,5.87,0,0,1,1.2-3.9,4.51,4.51,0,0,1,3.5-1.4,4.44,4.44,0,0,1,3.4,1.4A5.62,5.62,0,0,1,223.5,232.7Zm-7.8,0a5.1,5.1,0,0,0,.8,3,3.15,3.15,0,0,0,4.6,0,5.1,5.1,0,0,0,.8-3,4.56,4.56,0,0,0-.8-2.9,3.15,3.15,0,0,0-4.6,0A4.56,4.56,0,0,0,215.7,232.7Z"/><path class="cls-9" d="M239,237.8v-6.6a3,3,0,0,0-.5-1.8,2,2,0,0,0-1.6-.6,2.56,2.56,0,0,0-2.1.8,3.73,3.73,0,0,0-.7,2.5v5.7h-1.6v-6.6a3,3,0,0,0-.5-1.8,2,2,0,0,0-1.6-.6,2.34,2.34,0,0,0-2.1.9,5,5,0,0,0-.7,2.8v5.3h-1.5V227.6h1.3l.3,1.4h.1a3.17,3.17,0,0,1,3-1.6,3.05,3.05,0,0,1,3.1,1.7h.1a3.25,3.25,0,0,1,1.3-1.3,4.23,4.23,0,0,1,2-.5,3.42,3.42,0,0,1,2.6.9,3.77,3.77,0,0,1,.9,2.8v6.6H239Z"/><path class="cls-9" d="M247.9,238a4.9,4.9,0,0,1-3.6-1.4,5.17,5.17,0,0,1-1.3-3.8,6.05,6.05,0,0,1,1.2-3.9,3.92,3.92,0,0,1,3.3-1.4,3.54,3.54,0,0,1,3,1.3,4.86,4.86,0,0,1,1.1,3.3v1h-7a3.67,3.67,0,0,0,.9,2.7,3.24,3.24,0,0,0,2.4.9,7.11,7.11,0,0,0,3.2-.7v1.4a13.13,13.13,0,0,1-1.5.5C249.2,237.9,248.6,238,247.9,238Zm-.4-9.3a2.79,2.79,0,0,0-2,.8,3.69,3.69,0,0,0-.9,2.2h5.3a3.4,3.4,0,0,0-.6-2.2A2.2,2.2,0,0,0,247.5,228.7Z"/><path class="cls-9" d="M258.8,227.4a4.12,4.12,0,0,1,1.2.1l-.2,1.4a4.49,4.49,0,0,0-1.1-.1,2.64,2.64,0,0,0-2.1,1,3.66,3.66,0,0,0-.9,2.5v5.5h-1.5V227.6h1.3l.2,1.9h.1a3.42,3.42,0,0,1,1.4-1.5A2.27,2.27,0,0,1,258.8,227.4Z"/><path class="cls-9" d="M273.4,235a2.66,2.66,0,0,1-1.1,2.2,5.1,5.1,0,0,1-3,.8,7.31,7.31,0,0,1-3.2-.6V236c.5.2,1,.4,1.6.6a10,10,0,0,0,1.6.2,3.58,3.58,0,0,0,1.9-.4,1.31,1.31,0,0,0,.6-1.2,1.39,1.39,0,0,0-.5-1,7.12,7.12,0,0,0-2-1c-.9-.4-1.6-.7-2-.9a3.82,3.82,0,0,1-.9-.9,2.13,2.13,0,0,1-.3-1.2,2.33,2.33,0,0,1,1-2,4.65,4.65,0,0,1,2.8-.7,7.11,7.11,0,0,1,3.2.7l-.5,1.3a7.44,7.44,0,0,0-2.8-.6,4,4,0,0,0-1.7.3,1,1,0,0,0-.6.9,1.45,1.45,0,0,0,.2.7,1.28,1.28,0,0,0,.7.5c.3.2.9.4,1.8.8a6.35,6.35,0,0,1,2.4,1.3A1.72,1.72,0,0,1,273.4,235Z"/><path class="cls-9" d="M280.2,238a4.9,4.9,0,0,1-3.6-1.4,5.17,5.17,0,0,1-1.3-3.8,6.05,6.05,0,0,1,1.2-3.9,3.92,3.92,0,0,1,3.3-1.4,3.54,3.54,0,0,1,3,1.3,4.86,4.86,0,0,1,1.1,3.3v1h-7a3.67,3.67,0,0,0,.9,2.7,3.24,3.24,0,0,0,2.4.9,7.11,7.11,0,0,0,3.2-.7v1.4a13.13,13.13,0,0,1-1.5.5C281.5,237.9,280.9,238,280.2,238Zm-.4-9.3a2.79,2.79,0,0,0-2,.8,3.69,3.69,0,0,0-.9,2.2h5.3a3.4,3.4,0,0,0-.6-2.2A2.2,2.2,0,0,0,279.8,228.7Z"/><path class="cls-9" d="M291.1,227.4a4.12,4.12,0,0,1,1.2.1l-.2,1.4a4.49,4.49,0,0,0-1.1-.1,2.64,2.64,0,0,0-2.1,1,3.66,3.66,0,0,0-.9,2.5v5.5h-1.5V227.6h1.3l.2,1.9h.1a3.42,3.42,0,0,1,1.4-1.5A2.11,2.11,0,0,1,291.1,227.4Z"/><path class="cls-9" d="M297.3,237.8l-3.9-10.2h1.7l2.2,6q.75,2.1.9,2.7h.1c.1-.3.3-1,.6-2s1.2-3.3,2.4-6.7H303l-3.9,10.2Z"/><path class="cls-9" d="M304.7,224.9a1,1,0,0,1,.3-.8.73.73,0,0,1,.6-.2.71.71,0,0,1,.6.3,1,1,0,0,1,.3.8,1.14,1.14,0,0,1-.3.8.86.86,0,0,1-.6.3.6.6,0,0,1-.6-.3A1.61,1.61,0,0,1,304.7,224.9Zm1.7,12.9h-1.5V227.6h1.5Z"/><path class="cls-9" d="M313.6,238a4.29,4.29,0,0,1-3.4-1.4,5.59,5.59,0,0,1-1.2-3.8,5.69,5.69,0,0,1,1.2-3.9,4.51,4.51,0,0,1,3.5-1.4,7.72,7.72,0,0,1,1.5.2,3.37,3.37,0,0,1,1.2.4l-.5,1.3c-.3-.1-.7-.2-1.1-.3a4.49,4.49,0,0,0-1.1-.1c-2.1,0-3.1,1.3-3.1,4a5,5,0,0,0,.8,2.9,2.57,2.57,0,0,0,2.2,1,8.51,8.51,0,0,0,2.6-.5v1.4C315.4,237.8,314.6,238,313.6,238Z"/><path class="cls-9" d="M322.6,238a4.9,4.9,0,0,1-3.6-1.4,5.17,5.17,0,0,1-1.3-3.8,6.05,6.05,0,0,1,1.2-3.9,3.92,3.92,0,0,1,3.3-1.4,3.54,3.54,0,0,1,3,1.3,4.86,4.86,0,0,1,1.1,3.3v1h-7a3.67,3.67,0,0,0,.9,2.7,3.24,3.24,0,0,0,2.4.9,7.11,7.11,0,0,0,3.2-.7v1.4a13.13,13.13,0,0,1-1.5.5C323.8,237.9,323.2,238,322.6,238Zm-.5-9.3a2.79,2.79,0,0,0-2,.8,3.69,3.69,0,0,0-.9,2.2h5.3a3.4,3.4,0,0,0-.6-2.2A2.07,2.07,0,0,0,322.1,228.7Z"/><circle class="cls-5" cx="158.2" cy="230.4" r="7.7"/><path class="cls-9" d="M183.4,268.1h-7.6V254.5h7.6v1.4h-6v4.4H183v1.4h-5.6v5h6Z"/><path class="cls-9" d="M190,268.3a4.29,4.29,0,0,1-3.4-1.4,5.59,5.59,0,0,1-1.2-3.8,5.69,5.69,0,0,1,1.2-3.9,4.51,4.51,0,0,1,3.5-1.4,7.72,7.72,0,0,1,1.5.2,3.37,3.37,0,0,1,1.2.4l-.5,1.3c-.3-.1-.7-.2-1.1-.3a4.49,4.49,0,0,0-1.1-.1c-2.1,0-3.1,1.3-3.1,4a5,5,0,0,0,.8,2.9,2.57,2.57,0,0,0,2.2,1,8.51,8.51,0,0,0,2.6-.5v1.4C191.9,268.1,191,268.3,190,268.3Z"/><path class="cls-9" d="M203.5,263a5.26,5.26,0,0,1-1.3,3.9,4.51,4.51,0,0,1-3.5,1.4,4.75,4.75,0,0,1-2.4-.6,4,4,0,0,1-1.6-1.8,6.09,6.09,0,0,1-.6-2.8,5.87,5.87,0,0,1,1.2-3.9,4.51,4.51,0,0,1,3.5-1.4,4.44,4.44,0,0,1,3.4,1.4A5.62,5.62,0,0,1,203.5,263Zm-7.8,0a5.1,5.1,0,0,0,.8,3,3.15,3.15,0,0,0,4.6,0,5.1,5.1,0,0,0,.8-3,4.56,4.56,0,0,0-.8-2.9,3.15,3.15,0,0,0-4.6,0A4.56,4.56,0,0,0,195.7,263Z"/><path class="cls-9" d="M219,268.1v-6.6a3,3,0,0,0-.5-1.8,2,2,0,0,0-1.6-.6,2.56,2.56,0,0,0-2.1.8,3.73,3.73,0,0,0-.7,2.5v5.7h-1.6v-6.6a3,3,0,0,0-.5-1.8,2,2,0,0,0-1.6-.6,2.34,2.34,0,0,0-2.1.9,5,5,0,0,0-.7,2.8v5.3h-1.5V257.9h1.3l.3,1.4h.1a3.17,3.17,0,0,1,3-1.6,3.05,3.05,0,0,1,3.1,1.7h.1a3.25,3.25,0,0,1,1.3-1.3,4.23,4.23,0,0,1,2-.5,3.42,3.42,0,0,1,2.6.9,3.77,3.77,0,0,1,.9,2.8v6.6H219Z"/><path class="cls-9" d="M236.5,268.1v-6.6a3,3,0,0,0-.5-1.8,2,2,0,0,0-1.6-.6,2.56,2.56,0,0,0-2.1.8,3.73,3.73,0,0,0-.7,2.5v5.7h-1.5v-6.6a3,3,0,0,0-.5-1.8,2,2,0,0,0-1.6-.6,2.34,2.34,0,0,0-2.1.9,5,5,0,0,0-.7,2.8v5.3h-1.5V257.9H225l.3,1.4h.1a3.17,3.17,0,0,1,3-1.6,3.05,3.05,0,0,1,3.1,1.7h.1a3.25,3.25,0,0,1,1.3-1.3,4.23,4.23,0,0,1,2-.5,3.42,3.42,0,0,1,2.6.9,3.77,3.77,0,0,1,.9,2.8v6.6h-1.9Z"/><path class="cls-9" d="M245.4,268.3a4.9,4.9,0,0,1-3.6-1.4,5.17,5.17,0,0,1-1.3-3.8,6.05,6.05,0,0,1,1.2-3.9,3.92,3.92,0,0,1,3.3-1.4,3.54,3.54,0,0,1,3,1.3,4.86,4.86,0,0,1,1.1,3.3v1h-7a3.67,3.67,0,0,0,.9,2.7,3.24,3.24,0,0,0,2.4.9,7.11,7.11,0,0,0,3.2-.7v1.4a13.13,13.13,0,0,1-1.5.5C246.7,268.2,246.1,268.3,245.4,268.3ZM245,259a2.79,2.79,0,0,0-2,.8,3.69,3.69,0,0,0-.9,2.2h5.3a3.4,3.4,0,0,0-.6-2.2A2.2,2.2,0,0,0,245,259Z"/><path class="cls-9" d="M256.3,257.8a4.12,4.12,0,0,1,1.2.1l-.2,1.4a4.49,4.49,0,0,0-1.1-.1,2.64,2.64,0,0,0-2.1,1,3.66,3.66,0,0,0-.9,2.5v5.5h-1.5V258H253l.2,1.9h.1a3.42,3.42,0,0,1,1.4-1.5A1.91,1.91,0,0,1,256.3,257.8Z"/><path class="cls-9" d="M263.3,268.3a4.29,4.29,0,0,1-3.4-1.4,5.59,5.59,0,0,1-1.2-3.8,5.69,5.69,0,0,1,1.2-3.9,4.51,4.51,0,0,1,3.5-1.4,7.72,7.72,0,0,1,1.5.2,3.37,3.37,0,0,1,1.2.4l-.5,1.3c-.3-.1-.7-.2-1.1-.3a4.49,4.49,0,0,0-1.1-.1c-2.1,0-3.1,1.3-3.1,4a5,5,0,0,0,.8,2.9,2.57,2.57,0,0,0,2.2,1,8.51,8.51,0,0,0,2.6-.5v1.4C265.2,268.1,264.3,268.3,263.3,268.3Z"/><path class="cls-9" d="M272.3,268.3a4.9,4.9,0,0,1-3.6-1.4,5.17,5.17,0,0,1-1.3-3.8,6.05,6.05,0,0,1,1.2-3.9,3.92,3.92,0,0,1,3.3-1.4,3.54,3.54,0,0,1,3,1.3,4.86,4.86,0,0,1,1.1,3.3v1h-7a3.67,3.67,0,0,0,.9,2.7,3.24,3.24,0,0,0,2.4.9,7.11,7.11,0,0,0,3.2-.7v1.4a13.13,13.13,0,0,1-1.5.5C273.6,268.2,273,268.3,272.3,268.3Zm-.4-9.3a2.79,2.79,0,0,0-2,.8,3.69,3.69,0,0,0-.9,2.2h5.3a3.4,3.4,0,0,0-.6-2.2A2.2,2.2,0,0,0,271.9,259Z"/><circle class="cls-5" cx="158.2" cy="260.8" r="7.7"/><line class="cls-1" x1="445" y1="151.8" x2="445" y2="260.1"/><path class="cls-9" d="M473.7,170.2a6.74,6.74,0,0,1-1.8,5.1,7.15,7.15,0,0,1-5.2,1.8h-3.8V163.5h4.2a6.08,6.08,0,0,1,6.6,6.7Zm-1.7.1a4.63,4.63,0,0,0-5.3-5.3h-2.3v10.8h1.9a5.74,5.74,0,0,0,4.2-1.4A5.44,5.44,0,0,0,472,170.3Z"/><path class="cls-9" d="M480.7,177.3a4.9,4.9,0,0,1-3.6-1.4,5.17,5.17,0,0,1-1.3-3.8,6.05,6.05,0,0,1,1.2-3.9,3.92,3.92,0,0,1,3.3-1.4,3.54,3.54,0,0,1,3,1.3,4.86,4.86,0,0,1,1.1,3.3v1h-7a3.67,3.67,0,0,0,.9,2.7,3.24,3.24,0,0,0,2.4.9,7.11,7.11,0,0,0,3.2-.7v1.4a13.13,13.13,0,0,1-1.5.5C482,177.2,481.4,177.3,480.7,177.3Zm-.4-9.3a2.79,2.79,0,0,0-2,.8,3.69,3.69,0,0,0-.9,2.2h5.3a3.4,3.4,0,0,0-.6-2.2A2.2,2.2,0,0,0,480.3,168Z"/><path class="cls-9" d="M499.9,177.1v-6.6a3,3,0,0,0-.5-1.8,2,2,0,0,0-1.6-.6,2.56,2.56,0,0,0-2.1.8,3.73,3.73,0,0,0-.7,2.5v5.7h-1.5v-6.6a3,3,0,0,0-.5-1.8,2,2,0,0,0-1.6-.6,2.34,2.34,0,0,0-2.1.9,5,5,0,0,0-.7,2.8v5.3h-1.5V166.9h1.3l.3,1.4h.1a3.17,3.17,0,0,1,3-1.6,3.05,3.05,0,0,1,3.1,1.7h.1a3.25,3.25,0,0,1,1.3-1.3,4.23,4.23,0,0,1,2-.5,3.42,3.42,0,0,1,2.6.9,3.77,3.77,0,0,1,.9,2.8v6.6h-1.9Z"/><path class="cls-9" d="M510.7,177.1l-.3-1.4h-.1a4.36,4.36,0,0,1-1.5,1.3,5,5,0,0,1-1.9.3,3.65,3.65,0,0,1-2.4-.8,2.79,2.79,0,0,1-.9-2.2c0-2.1,1.6-3.1,4.9-3.2l1.7-.1v-.6a3,3,0,0,0-.5-1.8,2,2,0,0,0-1.6-.6,7.49,7.49,0,0,0-2.9.8l-.5-1.2a4.42,4.42,0,0,1,1.6-.6,5.54,5.54,0,0,1,1.8-.2,4.14,4.14,0,0,1,2.7.8,3.27,3.27,0,0,1,.9,2.6v6.9Zm-3.5-1.1a3.37,3.37,0,0,0,2.3-.8,3.11,3.11,0,0,0,.8-2.2v-.9l-1.5.1a4.33,4.33,0,0,0-2.6.6,1.82,1.82,0,0,0-.8,1.6,1.73,1.73,0,0,0,.5,1.3A2.06,2.06,0,0,0,507.2,176Z"/><path class="cls-9" d="M521.8,177.1v-6.6a2.88,2.88,0,0,0-.6-1.9,2.44,2.44,0,0,0-1.8-.6,2.74,2.74,0,0,0-2.3.9,4.28,4.28,0,0,0-.7,2.8V177h-1.5V166.8h1.3l.3,1.4h.1a3.74,3.74,0,0,1,1.3-1.2,4.77,4.77,0,0,1,4.7.5,3.77,3.77,0,0,1,.9,2.8v6.6h-1.7Z"/><path class="cls-9" d="M533.4,175.7h0a4,4,0,0,1-3.3,1.5,3.81,3.81,0,0,1-3.1-1.4,7.46,7.46,0,0,1,0-7.8,4.15,4.15,0,0,1,6.3.1h.1l-.1-.7v-4.8h1.5V177h-1.3Zm-3.1.3a2.74,2.74,0,0,0,2.3-.9,4.28,4.28,0,0,0,.7-2.8V172a5.07,5.07,0,0,0-.7-3.1,2.74,2.74,0,0,0-2.3-.9,2.48,2.48,0,0,0-2.1,1.1,5.13,5.13,0,0,0-.7,3,4.6,4.6,0,0,0,.7,2.9A2.39,2.39,0,0,0,530.3,176Z"/><circle class="cls-6" cx="445.2" cy="169.8" r="7.7"/><path class="cls-9" d="M470.6,193.9h1.7l-4.9,13.6h-1.6l-4.9-13.6h1.7l3.1,8.8c.4,1,.6,2,.9,2.9a17.1,17.1,0,0,1,.9-3Z"/><path class="cls-9" d="M477.5,207.6a4.9,4.9,0,0,1-3.6-1.4,5.17,5.17,0,0,1-1.3-3.8,6.05,6.05,0,0,1,1.2-3.9,3.92,3.92,0,0,1,3.3-1.4,3.54,3.54,0,0,1,3,1.3,5,5,0,0,1,1.1,3.3v1h-7a3.67,3.67,0,0,0,.9,2.7,3.24,3.24,0,0,0,2.4.9,7.11,7.11,0,0,0,3.2-.7V207a13.13,13.13,0,0,1-1.5.5A8.11,8.11,0,0,1,477.5,207.6Zm-.4-9.2a2.79,2.79,0,0,0-2,.8,3.69,3.69,0,0,0-.9,2.2h5.3a3.4,3.4,0,0,0-.6-2.2A2,2,0,0,0,477.1,198.4Z"/><path class="cls-9" d="M490.7,207.4v-6.6a2.88,2.88,0,0,0-.6-1.9,2.44,2.44,0,0,0-1.8-.6,2.74,2.74,0,0,0-2.3.9,4.28,4.28,0,0,0-.7,2.8v5.3h-1.5V197.1h1.3l.3,1.4h.1a3.74,3.74,0,0,1,1.3-1.2,4.77,4.77,0,0,1,4.7.5,3.77,3.77,0,0,1,.9,2.8v6.6h-1.7Z"/><path class="cls-9" d="M502.3,206.1h0a4,4,0,0,1-3.3,1.5,3.81,3.81,0,0,1-3.1-1.4,7.46,7.46,0,0,1,0-7.8,4.15,4.15,0,0,1,6.3.1h.1l-.1-.7V193h1.5v14.4h-1.2Zm-3.1.2a2.74,2.74,0,0,0,2.3-.9,4.28,4.28,0,0,0,.7-2.8v-.3a5.07,5.07,0,0,0-.7-3.1,2.74,2.74,0,0,0-2.3-.9,2.48,2.48,0,0,0-2.1,1.1,5.13,5.13,0,0,0-.7,3,4.6,4.6,0,0,0,.7,2.9A2.39,2.39,0,0,0,499.2,206.3Z"/><path class="cls-9" d="M515.6,202.4a5.26,5.26,0,0,1-1.3,3.9,4.67,4.67,0,0,1-3.5,1.4,4.75,4.75,0,0,1-2.4-.6,3.53,3.53,0,0,1-1.6-1.8,6.09,6.09,0,0,1-.6-2.8,5.87,5.87,0,0,1,1.2-3.9,4.51,4.51,0,0,1,3.5-1.4,4.44,4.44,0,0,1,3.4,1.4A5.44,5.44,0,0,1,515.6,202.4Zm-7.7,0a5.1,5.1,0,0,0,.8,3,3.14,3.14,0,0,0,4.6,0,5.1,5.1,0,0,0,.8-3,4.56,4.56,0,0,0-.8-2.9,3.14,3.14,0,0,0-4.6,0A4.56,4.56,0,0,0,507.9,202.4Z"/><path class="cls-9" d="M522.9,197.1a4.12,4.12,0,0,1,1.2.1l-.2,1.4a4.49,4.49,0,0,0-1.1-.1,2.64,2.64,0,0,0-2.1,1,3.66,3.66,0,0,0-.9,2.5v5.5h-1.5V197.3h1.3l.2,1.9h.1a3.42,3.42,0,0,1,1.4-1.5A2,2,0,0,1,522.9,197.1Z"/><path class="cls-9" d="M532.8,204.7a2.66,2.66,0,0,1-1.1,2.2,5.1,5.1,0,0,1-3,.8,7.31,7.31,0,0,1-3.2-.6v-1.4c.5.2,1,.4,1.6.6a10,10,0,0,0,1.6.2,3.58,3.58,0,0,0,1.9-.4,1.14,1.14,0,0,0,.6-1.2,1.39,1.39,0,0,0-.5-1,7.12,7.12,0,0,0-2-1c-.9-.4-1.6-.7-2-.9a3.82,3.82,0,0,1-.9-.9,2.13,2.13,0,0,1-.3-1.2,2.33,2.33,0,0,1,1-2,4.65,4.65,0,0,1,2.8-.7,7.11,7.11,0,0,1,3.2.7l-.5,1.3a7.44,7.44,0,0,0-2.8-.6,4,4,0,0,0-1.7.3,1,1,0,0,0-.6.9,1.45,1.45,0,0,0,.2.7,1.28,1.28,0,0,0,.7.5c.3.1.9.4,1.8.8a6.35,6.35,0,0,1,2.4,1.3A1.62,1.62,0,0,1,532.8,204.7Z"/><circle class="cls-6" cx="445.2" cy="200.1" r="7.7"/><path class="cls-9" d="M462.8,237.8V224.2h1.6v12.1h6v1.4h-7.6Z"/><path class="cls-9" d="M481.1,232.7a5.26,5.26,0,0,1-1.3,3.9,4.51,4.51,0,0,1-3.5,1.4,4.75,4.75,0,0,1-2.4-.6,4,4,0,0,1-1.6-1.8,6.09,6.09,0,0,1-.6-2.8,5.87,5.87,0,0,1,1.2-3.9,4.51,4.51,0,0,1,3.5-1.4,4.44,4.44,0,0,1,3.4,1.4A5.17,5.17,0,0,1,481.1,232.7Zm-7.7,0a5.1,5.1,0,0,0,.8,3,3.14,3.14,0,0,0,4.6,0,5.1,5.1,0,0,0,.8-3,4.56,4.56,0,0,0-.8-2.9,3.14,3.14,0,0,0-4.6,0A4,4,0,0,0,473.4,232.7Z"/><path class="cls-9" d="M492,227.6v1l-1.9.2a5.58,5.58,0,0,1,.5.8,3.73,3.73,0,0,1,.2,1.2,3,3,0,0,1-1,2.4,4.1,4.1,0,0,1-2.8.9,2.77,2.77,0,0,1-.9-.1,1.44,1.44,0,0,0-1,1.3.6.6,0,0,0,.3.6,2.87,2.87,0,0,0,1.2.2h1.8a3.73,3.73,0,0,1,2.5.7,2.38,2.38,0,0,1,.9,2,3,3,0,0,1-1.4,2.6,7.18,7.18,0,0,1-4,.9,5.48,5.48,0,0,1-3.1-.7,2.48,2.48,0,0,1-1.1-2.1,2.27,2.27,0,0,1,.6-1.6,2.59,2.59,0,0,1,1.7-.9,1.79,1.79,0,0,1-.7-.5,1.22,1.22,0,0,1-.3-.9,1.69,1.69,0,0,1,.3-1,3.63,3.63,0,0,1,.9-.8,2.76,2.76,0,0,1-1.3-1.1,3.45,3.45,0,0,1-.5-1.8,3.25,3.25,0,0,1,1-2.6,4.1,4.1,0,0,1,2.8-.9,5.9,5.9,0,0,1,1.4.2H492Zm-8.1,11.9a1.36,1.36,0,0,0,.7,1.3,3.74,3.74,0,0,0,2,.4,5.7,5.7,0,0,0,2.9-.6,1.8,1.8,0,0,0,.9-1.6,1.17,1.17,0,0,0-.5-1.1,4.09,4.09,0,0,0-1.9-.3h-1.8a2.54,2.54,0,0,0-1.6.5A1.75,1.75,0,0,0,483.9,239.5Zm.8-8.6a2,2,0,0,0,.6,1.6,2.31,2.31,0,0,0,1.7.5c1.5,0,2.3-.7,2.3-2.2a2.06,2.06,0,0,0-2.3-2.3,2.35,2.35,0,0,0-1.7.6A2.44,2.44,0,0,0,484.7,230.9Z"/><path class="cls-9" d="M493.9,224.9a1,1,0,0,1,.3-.8.73.73,0,0,1,.6-.2.71.71,0,0,1,.6.3,1,1,0,0,1,.3.8,1.14,1.14,0,0,1-.3.8.86.86,0,0,1-.6.3.6.6,0,0,1-.6-.3A1.61,1.61,0,0,1,493.9,224.9Zm1.7,12.9h-1.5V227.6h1.5Z"/><path class="cls-9" d="M505.2,235a2.66,2.66,0,0,1-1.1,2.2,5.1,5.1,0,0,1-3,.8,7.31,7.31,0,0,1-3.2-.6V236c.5.2,1,.4,1.6.6a10,10,0,0,0,1.6.2,3.58,3.58,0,0,0,1.9-.4,1.31,1.31,0,0,0,.6-1.2,1.39,1.39,0,0,0-.5-1,7.12,7.12,0,0,0-2-1c-.9-.4-1.6-.7-2-.9a3.82,3.82,0,0,1-.9-.9,2.13,2.13,0,0,1-.3-1.2,2.33,2.33,0,0,1,1-2,4.65,4.65,0,0,1,2.8-.7,7.11,7.11,0,0,1,3.2.7l-.5,1.3a7.44,7.44,0,0,0-2.8-.6,4,4,0,0,0-1.7.3,1,1,0,0,0-.6.9,1.45,1.45,0,0,0,.2.7,1.28,1.28,0,0,0,.7.5c.3.2.9.4,1.8.8a6.35,6.35,0,0,1,2.4,1.3A1.72,1.72,0,0,1,505.2,235Z"/><path class="cls-9" d="M511.3,236.7a2.2,2.2,0,0,0,.8-.1,1.76,1.76,0,0,1,.6-.1v1.2a6.39,6.39,0,0,1-.7.2,2.77,2.77,0,0,1-.9.1c-2,0-3-1-3-3.1v-6h-1.5v-.7l1.5-.6.6-2.2h.9v2.4h3V229h-3v6a2,2,0,0,0,.4,1.4A5,5,0,0,0,511.3,236.7Z"/><path class="cls-9" d="M514.7,224.9a1,1,0,0,1,.3-.8.73.73,0,0,1,.6-.2.71.71,0,0,1,.6.3,1.49,1.49,0,0,1,.3.8,1.14,1.14,0,0,1-.3.8.86.86,0,0,1-.6.3.6.6,0,0,1-.6-.3A1.1,1.1,0,0,1,514.7,224.9Zm1.6,12.9h-1.5V227.6h1.5Z"/><path class="cls-9" d="M523.5,238a4.29,4.29,0,0,1-3.4-1.4,5.59,5.59,0,0,1-1.2-3.8,5.69,5.69,0,0,1,1.2-3.9,4.51,4.51,0,0,1,3.5-1.4,7.72,7.72,0,0,1,1.5.2,3.37,3.37,0,0,1,1.2.4l-.5,1.3c-.3-.1-.7-.2-1.1-.3a4.49,4.49,0,0,0-1.1-.1c-2.1,0-3.1,1.3-3.1,4a5,5,0,0,0,.8,2.9,2.57,2.57,0,0,0,2.2,1,8.51,8.51,0,0,0,2.6-.5v1.4C525.4,237.8,524.5,238,523.5,238Z"/><path class="cls-9" d="M535.2,235a2.66,2.66,0,0,1-1.1,2.2,5.1,5.1,0,0,1-3,.8,7.31,7.31,0,0,1-3.2-.6V236c.5.2,1,.4,1.6.6a4.68,4.68,0,0,0,1.6.2,3.58,3.58,0,0,0,1.9-.4,1.31,1.31,0,0,0,.6-1.2,1.39,1.39,0,0,0-.5-1,7.12,7.12,0,0,0-2-1c-.9-.4-1.6-.7-2-.9a3.82,3.82,0,0,1-.9-.9,2.13,2.13,0,0,1-.3-1.2,2.33,2.33,0,0,1,1-2,4.65,4.65,0,0,1,2.8-.7,7.11,7.11,0,0,1,3.2.7l-.5,1.3a7.44,7.44,0,0,0-2.8-.6,4,4,0,0,0-1.7.3,1,1,0,0,0-.6.9,1.45,1.45,0,0,0,.2.7,1.28,1.28,0,0,0,.7.5c.3.2.9.4,1.8.8a6.35,6.35,0,0,1,2.4,1.3A2.26,2.26,0,0,1,535.2,235Z"/><circle class="cls-6" cx="445.2" cy="230.4" r="7.7"/><path class="cls-9" d="M462.8,268.1V254.5h1.6v13.6Z"/><path class="cls-9" d="M474.7,268.1v-6.6a2.88,2.88,0,0,0-.6-1.9,2.44,2.44,0,0,0-1.8-.6,2.74,2.74,0,0,0-2.3.9,4.28,4.28,0,0,0-.7,2.8V268h-1.5V257.8h1.3l.3,1.4h.1a3.74,3.74,0,0,1,1.3-1.2,4.77,4.77,0,0,1,4.7.5,3.77,3.77,0,0,1,.9,2.8v6.6h-1.7Z"/><path class="cls-9" d="M481.5,268.1l-3.9-10.2h1.7l2.2,6q.75,2.1.9,2.7h.1c.1-.3.3-1,.6-2s1.2-3.3,2.4-6.7h1.7l-3.9,10.2Z"/><path class="cls-9" d="M492.9,268.3a4.9,4.9,0,0,1-3.6-1.4,5.17,5.17,0,0,1-1.3-3.8,6.05,6.05,0,0,1,1.2-3.9,3.92,3.92,0,0,1,3.3-1.4,3.54,3.54,0,0,1,3,1.3,4.86,4.86,0,0,1,1.1,3.3v1h-7a3.67,3.67,0,0,0,.9,2.7,3.24,3.24,0,0,0,2.4.9,7.11,7.11,0,0,0,3.2-.7v1.4a13.13,13.13,0,0,1-1.5.5C494.2,268.2,493.6,268.3,492.9,268.3Zm-.4-9.3a2.79,2.79,0,0,0-2,.8,3.69,3.69,0,0,0-.9,2.2h5.3a3.4,3.4,0,0,0-.6-2.2A2.2,2.2,0,0,0,492.5,259Z"/><path class="cls-9" d="M506.1,268.1v-6.6a2.88,2.88,0,0,0-.6-1.9,2.44,2.44,0,0,0-1.8-.6,2.74,2.74,0,0,0-2.3.9,4.28,4.28,0,0,0-.7,2.8V268h-1.5V257.8h1.3l.3,1.4h.1a3.74,3.74,0,0,1,1.3-1.2,4.77,4.77,0,0,1,4.7.5,3.77,3.77,0,0,1,.9,2.8v6.6h-1.7Z"/><path class="cls-9" d="M514,267a2.2,2.2,0,0,0,.8-.1,1.76,1.76,0,0,1,.6-.1V268a6.39,6.39,0,0,1-.7.2,2.77,2.77,0,0,1-.9.1c-2,0-3-1-3-3.1v-6h-1.5v-.7l1.5-.6.6-2.2h.9v2.4h3v1.2h-3v6a2,2,0,0,0,.4,1.4A2.77,2.77,0,0,0,514,267Z"/><path class="cls-9" d="M526,263a5.26,5.26,0,0,1-1.3,3.9,4.51,4.51,0,0,1-3.5,1.4,4.75,4.75,0,0,1-2.4-.6,4,4,0,0,1-1.6-1.8,6.09,6.09,0,0,1-.6-2.8,5.87,5.87,0,0,1,1.2-3.9,4.51,4.51,0,0,1,3.5-1.4,4.44,4.44,0,0,1,3.4,1.4A5.17,5.17,0,0,1,526,263Zm-7.7,0a5.1,5.1,0,0,0,.8,3,3.14,3.14,0,0,0,4.6,0,5.1,5.1,0,0,0,.8-3,4.56,4.56,0,0,0-.8-2.9,3.14,3.14,0,0,0-4.6,0A4,4,0,0,0,518.3,263Z"/><path class="cls-9" d="M533.2,257.8a4.12,4.12,0,0,1,1.2.1l-.2,1.4a4.49,4.49,0,0,0-1.1-.1,2.64,2.64,0,0,0-2.1,1,3.66,3.66,0,0,0-.9,2.5v5.5h-1.5V258h1.3l.2,1.9h.1a3.42,3.42,0,0,1,1.4-1.5A1.91,1.91,0,0,1,533.2,257.8Z"/><path class="cls-9" d="M535.6,257.9h1.7l2.2,5.8a17,17,0,0,1,.9,2.9h.1a12.58,12.58,0,0,1,.5-1.6c.3-.8,1.1-3.1,2.5-7h1.7l-4.4,11.6a5,5,0,0,1-1.5,2.4,3.77,3.77,0,0,1-2.1.7,6.75,6.75,0,0,1-1.4-.2v-1.2a3.75,3.75,0,0,0,1.1.1,2.4,2.4,0,0,0,2.3-1.8l.6-1.4Z"/><circle class="cls-6" cx="445.2" cy="260.8" r="7.7"/><line class="cls-1" x1="783" y1="151.8" x2="783" y2="246.1"/><path class="cls-9" d="M812.6,170.3a7.26,7.26,0,0,1-1.6,5.1,5.94,5.94,0,0,1-4.6,1.9,5.88,5.88,0,0,1-4.6-1.8,7.37,7.37,0,0,1-1.6-5.2,7.26,7.26,0,0,1,1.6-5.1,5.88,5.88,0,0,1,4.6-1.8,5.75,5.75,0,0,1,4.6,1.9A7.16,7.16,0,0,1,812.6,170.3Zm-10.8,0a6.56,6.56,0,0,0,1.2,4.2,4,4,0,0,0,3.4,1.4,4.29,4.29,0,0,0,3.4-1.4,6.2,6.2,0,0,0,1.2-4.2,7.23,7.23,0,0,0-1.1-4.2,4.83,4.83,0,0,0-6.8,0A6.38,6.38,0,0,0,801.8,170.3Z"/><path class="cls-9" d="M823.1,177.1h-7.6V163.5h7.6v1.4h-6v4.4h5.6v1.4h-5.6v5h6Z"/><path class="cls-9" d="M833.4,177.1h-7.6V163.5h7.6v1.4h-6v4.4H833v1.4h-5.6v5h6Z"/><path class="cls-9" d="M840.2,171.9a13.85,13.85,0,0,1,.7-4.6,12.78,12.78,0,0,1,2.1-3.8h1.5a12,12,0,0,0-2,3.9,16.18,16.18,0,0,0-.7,4.4,13.49,13.49,0,0,0,.7,4.4,13.08,13.08,0,0,0,2,3.9H843a12.26,12.26,0,0,1-2.1-3.7A16.3,16.3,0,0,1,840.2,171.9Z"/><path class="cls-9" d="M858.2,170.3a7.26,7.26,0,0,1-1.6,5.1,5.94,5.94,0,0,1-4.6,1.9,5.88,5.88,0,0,1-4.6-1.8,7.37,7.37,0,0,1-1.6-5.2,7.26,7.26,0,0,1,1.6-5.1,5.88,5.88,0,0,1,4.6-1.8,5.75,5.75,0,0,1,4.6,1.9A7.16,7.16,0,0,1,858.2,170.3Zm-10.8,0a6.56,6.56,0,0,0,1.2,4.2,4,4,0,0,0,3.4,1.4,4.29,4.29,0,0,0,3.4-1.4,6.2,6.2,0,0,0,1.2-4.2,7.23,7.23,0,0,0-1.1-4.2,4.83,4.83,0,0,0-6.8,0A6,6,0,0,0,847.4,170.3Z"/><path class="cls-9" d="M863.5,177.1l-3.9-10.2h1.7l2.2,6q.75,2.1.9,2.7h.1c.1-.3.3-1,.6-2s1.2-3.3,2.4-6.7h1.7l-3.9,10.2Z"/><path class="cls-9" d="M874.9,177.3a4.9,4.9,0,0,1-3.6-1.4,5.17,5.17,0,0,1-1.3-3.8,6.05,6.05,0,0,1,1.2-3.9,3.92,3.92,0,0,1,3.3-1.4,3.54,3.54,0,0,1,3,1.3,4.86,4.86,0,0,1,1.1,3.3v1h-7a3.67,3.67,0,0,0,.9,2.7,3.24,3.24,0,0,0,2.4.9,7.11,7.11,0,0,0,3.2-.7v1.4a13.13,13.13,0,0,1-1.5.5C876.2,177.2,875.6,177.3,874.9,177.3Zm-.4-9.3a2.79,2.79,0,0,0-2,.8,3.69,3.69,0,0,0-.9,2.2h5.3a3.4,3.4,0,0,0-.6-2.2A2.2,2.2,0,0,0,874.5,168Z"/><path class="cls-9" d="M885.8,166.8a4.12,4.12,0,0,1,1.2.1l-.2,1.4a4.49,4.49,0,0,0-1.1-.1,2.64,2.64,0,0,0-2.1,1,3.66,3.66,0,0,0-.9,2.5v5.5h-1.5V167h1.3l.2,1.9h.1a3.42,3.42,0,0,1,1.4-1.5A1.91,1.91,0,0,1,885.8,166.8Z"/><path class="cls-9" d="M895,177.1l-.3-1.4h-.1a4.36,4.36,0,0,1-1.5,1.3,5,5,0,0,1-1.9.3,3.65,3.65,0,0,1-2.4-.8,2.79,2.79,0,0,1-.9-2.2c0-2.1,1.6-3.1,4.9-3.2l1.7-.1v-.6a3,3,0,0,0-.5-1.8,2,2,0,0,0-1.6-.6,7.49,7.49,0,0,0-2.9.8l-.5-1.2a4.42,4.42,0,0,1,1.6-.6,11,11,0,0,1,1.8-.2,4.14,4.14,0,0,1,2.7.8,3.27,3.27,0,0,1,.9,2.6v6.9Zm-3.5-1.1a3.37,3.37,0,0,0,2.3-.8,3.11,3.11,0,0,0,.8-2.2v-.9l-1.5.1a4.33,4.33,0,0,0-2.6.6,1.82,1.82,0,0,0-.8,1.6,1.73,1.73,0,0,0,.5,1.3A2.27,2.27,0,0,0,891.5,176Z"/><path class="cls-9" d="M900.7,177.1h-1.5V162.7h1.5Z"/><path class="cls-9" d="M905.3,177.1h-1.5V162.7h1.5Z"/><path class="cls-9" d="M808.4,199.9h-7.6V186.3h7.6v1.4h-6v4.4H808v1.4h-5.6v5h6Z"/><path class="cls-9" d="M814.5,200.1a4,4,0,0,1-3.1-1.4,7.46,7.46,0,0,1,0-7.8,3.81,3.81,0,0,1,3.1-1.4,3.53,3.53,0,0,1,3.2,1.6h.1l.2-1.4h1.2v14.8h-1.5v-4.4a8.08,8.08,0,0,1,.1-1.6h-.1A3.43,3.43,0,0,1,814.5,200.1Zm.3-1.3a2.79,2.79,0,0,0,2.2-.8,4.91,4.91,0,0,0,.8-2.8v-.3a5.27,5.27,0,0,0-.7-3.1,2.92,2.92,0,0,0-4.4.2,5.13,5.13,0,0,0-.7,3,4.6,4.6,0,0,0,.7,2.9A2.34,2.34,0,0,0,814.8,198.8Z"/><path class="cls-9" d="M823.9,189.7v6.6a2.88,2.88,0,0,0,.6,1.9,2.1,2.1,0,0,0,1.8.6,2.74,2.74,0,0,0,2.3-.9,4.28,4.28,0,0,0,.7-2.8v-5.3h1.5V200h-1.3l-.2-1.4h-.1a3.74,3.74,0,0,1-1.3,1.2,4.06,4.06,0,0,1-1.9.4,3.93,3.93,0,0,1-2.8-.9,3.77,3.77,0,0,1-.9-2.8v-6.7h1.6Z"/><path class="cls-9" d="M833.8,187a1,1,0,0,1,.3-.8.73.73,0,0,1,.6-.2.71.71,0,0,1,.6.3,1.49,1.49,0,0,1,.3.8,1.14,1.14,0,0,1-.3.8.86.86,0,0,1-.6.3.6.6,0,0,1-.6-.3A1.61,1.61,0,0,1,833.8,187Zm1.6,12.9h-1.5V189.7h1.5Z"/><path class="cls-9" d="M843.2,200.1a3.42,3.42,0,0,1-1.8-.4,3.6,3.6,0,0,1-1.4-1.1h-.1a10.29,10.29,0,0,1,.1,1.7v4.2h-1.5V189.8h1.3l.2,1.4h.1a3.13,3.13,0,0,1,1.4-1.2,4.78,4.78,0,0,1,1.8-.4,3.81,3.81,0,0,1,3.1,1.4,7.46,7.46,0,0,1,0,7.8A3.81,3.81,0,0,1,843.2,200.1Zm-.2-9.2a2.87,2.87,0,0,0-2.3.9,4.15,4.15,0,0,0-.7,2.7v.3a5.07,5.07,0,0,0,.7,3.1,2.74,2.74,0,0,0,2.3.9,2.48,2.48,0,0,0,2.1-1.1,5,5,0,0,0,.7-2.9,4.79,4.79,0,0,0-.7-2.9A2.39,2.39,0,0,0,843,190.9Z"/><path class="cls-9" d="M863,199.9v-6.6a3,3,0,0,0-.5-1.8,2,2,0,0,0-1.6-.6,2.56,2.56,0,0,0-2.1.8,3.73,3.73,0,0,0-.7,2.5v5.7h-1.6v-6.6a3,3,0,0,0-.5-1.8,2,2,0,0,0-1.6-.6,2.34,2.34,0,0,0-2.1.9,5,5,0,0,0-.7,2.8v5.3h-1.5V189.7h1.3l.3,1.4h.1a3.17,3.17,0,0,1,3-1.6,3.05,3.05,0,0,1,3.1,1.7h.1a3.25,3.25,0,0,1,1.3-1.3,4.23,4.23,0,0,1,2-.5,3.42,3.42,0,0,1,2.6.9,3.77,3.77,0,0,1,.9,2.8v6.6H863Z"/><path class="cls-9" d="M871.9,200.1a4.9,4.9,0,0,1-3.6-1.4,5.17,5.17,0,0,1-1.3-3.8,6.05,6.05,0,0,1,1.2-3.9,3.92,3.92,0,0,1,3.3-1.4,3.54,3.54,0,0,1,3,1.3,4.86,4.86,0,0,1,1.1,3.3v1h-7a3.67,3.67,0,0,0,.9,2.7,3.24,3.24,0,0,0,2.4.9,7.11,7.11,0,0,0,3.2-.7v1.4a13.13,13.13,0,0,1-1.5.5C873.2,200,872.6,200.1,871.9,200.1Zm-.4-9.3a2.79,2.79,0,0,0-2,.8,3.69,3.69,0,0,0-.9,2.2h5.3a3.4,3.4,0,0,0-.6-2.2A2.2,2.2,0,0,0,871.5,190.8Z"/><path class="cls-9" d="M885.1,199.9v-6.6a2.88,2.88,0,0,0-.6-1.9,2.1,2.1,0,0,0-1.8-.6,2.74,2.74,0,0,0-2.3.9,4.28,4.28,0,0,0-.7,2.8v5.3h-1.5V189.6h1.3l.3,1.4h.1a3.74,3.74,0,0,1,1.3-1.2,3.81,3.81,0,0,1,1.9-.4,4.1,4.1,0,0,1,2.8.9,3.77,3.77,0,0,1,.9,2.8v6.6h-1.7Z"/><path class="cls-9" d="M893,198.8a2.2,2.2,0,0,0,.8-.1,1.76,1.76,0,0,1,.6-.1v1.2a6.39,6.39,0,0,1-.7.2,2.77,2.77,0,0,1-.9.1c-2,0-3-1-3-3.1v-6h-1.5v-.7l1.5-.6.6-2.2h.9v2.4h3v1.2h-3v6a2,2,0,0,0,.4,1.4A1.81,1.81,0,0,0,893,198.8Z"/><path class="cls-9" d="M808.4,222.7h-7.6V209.1h7.6v1.4h-6v4.4H808v1.4h-5.6v5h6Z"/><path class="cls-9" d="M815.5,213.7h-2.6v9h-1.5v-9h-1.8V213l1.8-.6v-.6c0-2.5,1.1-3.7,3.3-3.7a7.39,7.39,0,0,1,1.9.3l-.4,1.2a4.93,4.93,0,0,0-1.5-.3,1.49,1.49,0,0,0-1.3.6,3.16,3.16,0,0,0-.4,1.9v.7h2.6v1.2Zm6.5,0h-2.6v9h-1.5v-9h-1.8V213l1.8-.6v-.6c0-2.5,1.1-3.7,3.3-3.7a7.39,7.39,0,0,1,1.9.3l-.4,1.2a4.93,4.93,0,0,0-1.5-.3,1.49,1.49,0,0,0-1.3.6,3.16,3.16,0,0,0-.4,1.9v.7h2.6v1.2Z"/><path class="cls-9" d="M828,222.9a4.9,4.9,0,0,1-3.6-1.4,5.17,5.17,0,0,1-1.3-3.8,6.05,6.05,0,0,1,1.2-3.9,3.92,3.92,0,0,1,3.3-1.4,3.54,3.54,0,0,1,3,1.3,4.86,4.86,0,0,1,1.1,3.3v1h-7a3.67,3.67,0,0,0,.9,2.7,3.24,3.24,0,0,0,2.4.9,7.11,7.11,0,0,0,3.2-.7v1.4a13.13,13.13,0,0,1-1.5.5C829.3,222.8,828.7,222.9,828,222.9Zm-.4-9.3a2.79,2.79,0,0,0-2,.8,3.69,3.69,0,0,0-.9,2.2H830a3.4,3.4,0,0,0-.6-2.2A2.2,2.2,0,0,0,827.6,213.6Z"/><path class="cls-9" d="M838.5,222.9a4.29,4.29,0,0,1-3.4-1.4,5.59,5.59,0,0,1-1.2-3.8,5.69,5.69,0,0,1,1.2-3.9,4.51,4.51,0,0,1,3.5-1.4,7.72,7.72,0,0,1,1.5.2,3.37,3.37,0,0,1,1.2.4l-.5,1.3c-.3-.1-.7-.2-1.1-.3a4.49,4.49,0,0,0-1.1-.1c-2.1,0-3.1,1.3-3.1,4a5,5,0,0,0,.8,2.9,2.57,2.57,0,0,0,2.2,1,8.51,8.51,0,0,0,2.6-.5v1.4C840.3,222.7,839.5,222.9,838.5,222.9Z"/><path class="cls-9" d="M847.3,221.6a2.2,2.2,0,0,0,.8-.1,1.76,1.76,0,0,1,.6-.1v1.2a6.39,6.39,0,0,1-.7.2,2.77,2.77,0,0,1-.9.1c-2,0-3-1-3-3.1v-6h-1.5v-.7l1.5-.6.6-2.2h.9v2.4h3v1.2h-3v6a2,2,0,0,0,.4,1.4A1.81,1.81,0,0,0,847.3,221.6Z"/><path class="cls-9" d="M850.6,209.8a1,1,0,0,1,.3-.8.73.73,0,0,1,.6-.2.71.71,0,0,1,.6.3,1.49,1.49,0,0,1,.3.8,1.14,1.14,0,0,1-.3.8.86.86,0,0,1-.6.3.6.6,0,0,1-.6-.3A1.61,1.61,0,0,1,850.6,209.8Zm1.7,12.9h-1.5V212.5h1.5Z"/><path class="cls-9" d="M858,222.7l-3.9-10.2h1.7l2.2,6q.75,2.1.9,2.7h.1c.1-.3.3-1,.6-2s1.2-3.3,2.4-6.7h1.7l-3.9,10.2Z"/><path class="cls-9" d="M869.4,222.9a4.9,4.9,0,0,1-3.6-1.4,5.17,5.17,0,0,1-1.3-3.8,6.05,6.05,0,0,1,1.2-3.9,3.92,3.92,0,0,1,3.3-1.4,3.54,3.54,0,0,1,3,1.3,4.86,4.86,0,0,1,1.1,3.3v1h-7a3.67,3.67,0,0,0,.9,2.7,3.24,3.24,0,0,0,2.4.9,7.11,7.11,0,0,0,3.2-.7v1.4a13.13,13.13,0,0,1-1.5.5C870.7,222.8,870.1,222.9,869.4,222.9Zm-.4-9.3a2.79,2.79,0,0,0-2,.8,3.69,3.69,0,0,0-.9,2.2h5.3a3.4,3.4,0,0,0-.6-2.2A2.2,2.2,0,0,0,869,213.6Z"/><path class="cls-9" d="M882.6,222.7v-6.6a2.88,2.88,0,0,0-.6-1.9,2.1,2.1,0,0,0-1.8-.6,2.74,2.74,0,0,0-2.3.9,4.28,4.28,0,0,0-.7,2.8v5.3h-1.5V212.5H877l.3,1.4h.1a3.74,3.74,0,0,1,1.3-1.2,3.81,3.81,0,0,1,1.9-.4,4.1,4.1,0,0,1,2.8.9,3.77,3.77,0,0,1,.9,2.8v6.6h-1.7Z"/><path class="cls-9" d="M891.5,222.9a4.9,4.9,0,0,1-3.6-1.4,5.17,5.17,0,0,1-1.3-3.8,6.05,6.05,0,0,1,1.2-3.9,3.92,3.92,0,0,1,3.3-1.4,3.54,3.54,0,0,1,3,1.3,4.86,4.86,0,0,1,1.1,3.3v1h-7a3.67,3.67,0,0,0,.9,2.7,3.24,3.24,0,0,0,2.4.9,7.11,7.11,0,0,0,3.2-.7v1.4a13.13,13.13,0,0,1-1.5.5C892.8,222.8,892.2,222.9,891.5,222.9Zm-.4-9.3a2.79,2.79,0,0,0-2,.8,3.69,3.69,0,0,0-.9,2.2h5.3a3.4,3.4,0,0,0-.6-2.2A2.2,2.2,0,0,0,891.1,213.6Z"/><path class="cls-9" d="M904.4,219.9a2.66,2.66,0,0,1-1.1,2.2,5.1,5.1,0,0,1-3,.8,7.31,7.31,0,0,1-3.2-.6v-1.4c.5.2,1,.4,1.6.6a10,10,0,0,0,1.6.2,3.58,3.58,0,0,0,1.9-.4,1.31,1.31,0,0,0,.6-1.2,1.39,1.39,0,0,0-.5-1,7.12,7.12,0,0,0-2-1c-.9-.4-1.6-.7-2-.9a3.82,3.82,0,0,1-.9-.9,2.13,2.13,0,0,1-.3-1.2,2.33,2.33,0,0,1,1-2,4.65,4.65,0,0,1,2.8-.7,7.11,7.11,0,0,1,3.2.7l-.5,1.3a7.44,7.44,0,0,0-2.8-.6,4,4,0,0,0-1.7.3,1,1,0,0,0-.6.9,1.45,1.45,0,0,0,.2.7,1.28,1.28,0,0,0,.7.5c.3.1.9.4,1.8.8a6.35,6.35,0,0,1,2.4,1.3A1.82,1.82,0,0,1,904.4,219.9Z"/><path class="cls-9" d="M913.5,219.9a2.66,2.66,0,0,1-1.1,2.2,5.1,5.1,0,0,1-3,.8,7.31,7.31,0,0,1-3.2-.6v-1.4c.5.2,1,.4,1.6.6a4.68,4.68,0,0,0,1.6.2,3.58,3.58,0,0,0,1.9-.4,1.31,1.31,0,0,0,.6-1.2,1.39,1.39,0,0,0-.5-1,7.12,7.12,0,0,0-2-1c-.9-.4-1.6-.7-2-.9a3.82,3.82,0,0,1-.9-.9,2.13,2.13,0,0,1-.3-1.2,2.33,2.33,0,0,1,1-2,4.65,4.65,0,0,1,2.8-.7,7.11,7.11,0,0,1,3.2.7l-.5,1.3a7.44,7.44,0,0,0-2.8-.6,4,4,0,0,0-1.7.3,1,1,0,0,0-.6.9,1.45,1.45,0,0,0,.2.7,1.28,1.28,0,0,0,.7.5c.3.2.9.4,1.8.8a6.35,6.35,0,0,1,2.4,1.3A2.47,2.47,0,0,1,913.5,219.9Z"/><path class="cls-9" d="M918.6,217.5a13.27,13.27,0,0,1-.7,4.5,12.26,12.26,0,0,1-2.1,3.7h-1.5a14.4,14.4,0,0,0,2-3.9,14.18,14.18,0,0,0,0-8.8,12,12,0,0,0-2-3.9h1.5a11.65,11.65,0,0,1,2.1,3.8A17.66,17.66,0,0,1,918.6,217.5Z"/><circle class="cls-5" cx="783.2" cy="169.8" r="7.7"/><path class="cls-9" d="M812.6,247.3a8.06,8.06,0,0,1-1,4.3,5.35,5.35,0,0,1-3,2.3l3.2,3.4h-2.3l-2.6-3.1h-.5a5.88,5.88,0,0,1-4.6-1.8,7.37,7.37,0,0,1-1.6-5.2,7.26,7.26,0,0,1,1.6-5.1,5.88,5.88,0,0,1,4.6-1.8,5.75,5.75,0,0,1,4.6,1.9A7.43,7.43,0,0,1,812.6,247.3Zm-10.8,0a6.56,6.56,0,0,0,1.2,4.2,4,4,0,0,0,3.4,1.4,4.29,4.29,0,0,0,3.4-1.4,6.2,6.2,0,0,0,1.2-4.2,7.23,7.23,0,0,0-1.1-4.2,4.83,4.83,0,0,0-6.8,0A6.38,6.38,0,0,0,801.8,247.3Z"/><path class="cls-9" d="M816.8,243.9v6.6a2.88,2.88,0,0,0,.6,1.9,2.1,2.1,0,0,0,1.8.6,2.74,2.74,0,0,0,2.3-.9,4.28,4.28,0,0,0,.7-2.8V244h1.5v10.2h-1.2l-.2-1.4h-.1a3.74,3.74,0,0,1-1.3,1.2,3.81,3.81,0,0,1-1.9.4,3.93,3.93,0,0,1-2.8-.9,3.77,3.77,0,0,1-.9-2.8V244h1.5Z"/><path class="cls-9" d="M833.1,254.1l-.3-1.4h-.1a4.36,4.36,0,0,1-1.5,1.3,5,5,0,0,1-1.9.3,3.65,3.65,0,0,1-2.4-.8,2.79,2.79,0,0,1-.9-2.2c0-2.1,1.6-3.1,4.9-3.2l1.7-.1v-.6a3,3,0,0,0-.5-1.8,2,2,0,0,0-1.6-.6,7.49,7.49,0,0,0-2.9.8l-.5-1.2a4.42,4.42,0,0,1,1.6-.6,5.54,5.54,0,0,1,1.8-.2,4.14,4.14,0,0,1,2.7.8,3.27,3.27,0,0,1,.9,2.6v6.9Zm-3.5-1.1a3.37,3.37,0,0,0,2.3-.8,3.11,3.11,0,0,0,.8-2.2v-.9l-1.5.1a4.33,4.33,0,0,0-2.6.6,1.82,1.82,0,0,0-.8,1.6,1.73,1.73,0,0,0,.5,1.3A2.06,2.06,0,0,0,829.6,253Z"/><path class="cls-9" d="M838.8,254.1h-1.5V239.7h1.5Z"/><path class="cls-9" d="M841.7,241.2a1,1,0,0,1,.3-.8.73.73,0,0,1,.6-.2.71.71,0,0,1,.6.3,1.49,1.49,0,0,1,.3.8,1,1,0,0,1-.3.8.86.86,0,0,1-.6.3.6.6,0,0,1-.6-.3A1.61,1.61,0,0,1,841.7,241.2Zm1.7,12.9h-1.5V243.9h1.5Z"/><path class="cls-9" d="M850,253a2.2,2.2,0,0,0,.8-.1,3.54,3.54,0,0,0,.6-.1V254a6.39,6.39,0,0,1-.7.2,2.77,2.77,0,0,1-.9.1c-2,0-3-1-3-3.1v-6h-1.5v-.7l1.5-.6.6-2.2h.9v2.4h3v1.2h-3v6a2,2,0,0,0,.4,1.4A2.77,2.77,0,0,0,850,253Z"/><path class="cls-9" d="M852.6,243.9h1.7l2.2,5.8a17,17,0,0,1,.9,2.9h.1a12.58,12.58,0,0,1,.5-1.6c.3-.8,1.1-3.1,2.5-7h1.7l-4.4,11.6a5,5,0,0,1-1.5,2.4,3.77,3.77,0,0,1-2.1.7,6.75,6.75,0,0,1-1.4-.2v-1.2a3.75,3.75,0,0,0,1.1.1,2.4,2.4,0,0,0,2.3-1.8l.6-1.4Z"/><circle class="cls-5" cx="783.2" cy="246.8" r="7.7"/><line class="cls-1" x1="601" y1="151.8" x2="601" y2="264.3"/><path class="cls-9" d="M627.4,177.1l-1.7-4.3h-5.4l-1.7,4.3H617l5.4-13.6h1.3l5.3,13.6Zm-2.2-5.7-1.6-4.2a16.69,16.69,0,0,1-.6-2,10.78,10.78,0,0,1-.6,2l-1.6,4.2Z"/><path class="cls-9" d="M637.7,174.3a2.66,2.66,0,0,1-1.1,2.2,5.1,5.1,0,0,1-3,.8,7.31,7.31,0,0,1-3.2-.6v-1.4c.5.2,1,.4,1.6.6a10,10,0,0,0,1.6.2,3.58,3.58,0,0,0,1.9-.4,1.31,1.31,0,0,0,.6-1.2,1.39,1.39,0,0,0-.5-1,7.12,7.12,0,0,0-2-1c-.9-.4-1.6-.7-2-.9a3.82,3.82,0,0,1-.9-.9,2.13,2.13,0,0,1-.3-1.2,2.33,2.33,0,0,1,1-2,4.65,4.65,0,0,1,2.8-.7,7.11,7.11,0,0,1,3.2.7l-.5,1.3a7.44,7.44,0,0,0-2.8-.6,4,4,0,0,0-1.7.3,1,1,0,0,0-.6.9,1.45,1.45,0,0,0,.2.7,1.28,1.28,0,0,0,.7.5c.3.2.9.4,1.8.8a6.35,6.35,0,0,1,2.4,1.3A1.82,1.82,0,0,1,637.7,174.3Z"/><path class="cls-9" d="M646.8,174.3a2.66,2.66,0,0,1-1.1,2.2,5.1,5.1,0,0,1-3,.8,7.31,7.31,0,0,1-3.2-.6v-1.4c.5.2,1,.4,1.6.6a10,10,0,0,0,1.6.2,3.58,3.58,0,0,0,1.9-.4,1.31,1.31,0,0,0,.6-1.2,1.39,1.39,0,0,0-.5-1,7.12,7.12,0,0,0-2-1c-.9-.4-1.6-.7-2-.9a3.82,3.82,0,0,1-.9-.9,2.13,2.13,0,0,1-.3-1.2,2.33,2.33,0,0,1,1-2,4.65,4.65,0,0,1,2.8-.7,7.11,7.11,0,0,1,3.2.7l-.5,1.3a7.44,7.44,0,0,0-2.8-.6,4,4,0,0,0-1.7.3,1,1,0,0,0-.6.9,1.45,1.45,0,0,0,.2.7,1.28,1.28,0,0,0,.7.5c.3.2.9.4,1.8.8a6.35,6.35,0,0,1,2.4,1.3A1.82,1.82,0,0,1,646.8,174.3Z"/><path class="cls-9" d="M653.6,177.3a4.9,4.9,0,0,1-3.6-1.4,5.17,5.17,0,0,1-1.3-3.8,6.05,6.05,0,0,1,1.2-3.9,3.92,3.92,0,0,1,3.3-1.4,3.54,3.54,0,0,1,3,1.3,4.86,4.86,0,0,1,1.1,3.3v1h-7a3.67,3.67,0,0,0,.9,2.7,3.24,3.24,0,0,0,2.4.9,7.11,7.11,0,0,0,3.2-.7v1.4a13.13,13.13,0,0,1-1.5.5C654.9,177.2,654.3,177.3,653.6,177.3Zm-.4-9.3a2.79,2.79,0,0,0-2,.8,3.69,3.69,0,0,0-.9,2.2h5.3a3.4,3.4,0,0,0-.6-2.2A2.2,2.2,0,0,0,653.2,168Z"/><path class="cls-9" d="M663.2,176a2.2,2.2,0,0,0,.8-.1,3.54,3.54,0,0,0,.6-.1V177a6.39,6.39,0,0,1-.7.2,2.77,2.77,0,0,1-.9.1c-2,0-3-1-3-3.1v-6h-1.5v-.7l1.5-.6.6-2.2h.9v2.4h3v1.2h-3v6a2,2,0,0,0,.4,1.4A2.77,2.77,0,0,0,663.2,176Z"/><path class="cls-9" d="M673.1,177.1h-1.5V162.7h1.5Z"/><path class="cls-9" d="M676.1,164.2a1,1,0,0,1,.3-.8.73.73,0,0,1,.6-.2.71.71,0,0,1,.6.3,1.22,1.22,0,0,1,0,1.6.86.86,0,0,1-.6.3.6.6,0,0,1-.6-.3A2.39,2.39,0,0,1,676.1,164.2Zm1.6,12.9h-1.5V166.9h1.5Z"/><path class="cls-9" d="M685.7,168.1h-2.6v9h-1.6v-9h-1.8v-.7l1.8-.6v-.6c0-2.5,1.1-3.7,3.3-3.7a7.39,7.39,0,0,1,1.9.3l-.4,1.2a4.93,4.93,0,0,0-1.5-.3,1.49,1.49,0,0,0-1.3.6,3.16,3.16,0,0,0-.4,1.9v.7h2.6v1.2Z"/><path class="cls-9" d="M691.7,177.3a4.9,4.9,0,0,1-3.6-1.4,5.17,5.17,0,0,1-1.3-3.8,6.05,6.05,0,0,1,1.2-3.9,3.92,3.92,0,0,1,3.3-1.4,3.54,3.54,0,0,1,3,1.3,4.86,4.86,0,0,1,1.1,3.3v1h-7a3.67,3.67,0,0,0,.9,2.7,3.24,3.24,0,0,0,2.4.9,7.11,7.11,0,0,0,3.2-.7v1.4a13.13,13.13,0,0,1-1.5.5C692.9,177.2,692.3,177.3,691.7,177.3Zm-.5-9.3a2.79,2.79,0,0,0-2,.8,3.69,3.69,0,0,0-.9,2.2h5.3a3.4,3.4,0,0,0-.6-2.2A2.07,2.07,0,0,0,691.2,168Z"/><path class="cls-9" d="M707,177.3a4.29,4.29,0,0,1-3.4-1.4,5.59,5.59,0,0,1-1.2-3.8,5.69,5.69,0,0,1,1.2-3.9,4.51,4.51,0,0,1,3.5-1.4,7.72,7.72,0,0,1,1.5.2,3.37,3.37,0,0,1,1.2.4l-.5,1.3c-.3-.1-.7-.2-1.1-.3a4.49,4.49,0,0,0-1.1-.1c-2.1,0-3.1,1.3-3.1,4a5,5,0,0,0,.8,2.9,2.57,2.57,0,0,0,2.2,1,8.51,8.51,0,0,0,2.6-.5v1.4C708.9,177.1,708,177.3,707,177.3Z"/><path class="cls-9" d="M711.1,166.9h1.7l2.2,5.8a17,17,0,0,1,.9,2.9h.1a12.58,12.58,0,0,1,.5-1.6c.3-.8,1.1-3.1,2.5-7h1.7l-4.4,11.6a5,5,0,0,1-1.5,2.4,3.77,3.77,0,0,1-2.1.7,6.75,6.75,0,0,1-1.4-.2v-1.2a3.75,3.75,0,0,0,1.1.1,2.4,2.4,0,0,0,2.3-1.8l.6-1.4Z"/><path class="cls-9" d="M726.2,177.3a4.29,4.29,0,0,1-3.4-1.4,5.59,5.59,0,0,1-1.2-3.8,5.69,5.69,0,0,1,1.2-3.9,4.51,4.51,0,0,1,3.5-1.4,7.72,7.72,0,0,1,1.5.2,3.37,3.37,0,0,1,1.2.4l-.5,1.3c-.3-.1-.7-.2-1.1-.3a4.49,4.49,0,0,0-1.1-.1c-2.1,0-3.1,1.3-3.1,4a5,5,0,0,0,.8,2.9,2.57,2.57,0,0,0,2.2,1,8.51,8.51,0,0,0,2.6-.5v1.4C728.1,177.1,727.2,177.3,726.2,177.3Z"/><path class="cls-9" d="M732.6,177.1h-1.5V162.7h1.5Z"/><path class="cls-9" d="M740,177.3a4.9,4.9,0,0,1-3.6-1.4,5.17,5.17,0,0,1-1.3-3.8,6.05,6.05,0,0,1,1.2-3.9,3.92,3.92,0,0,1,3.3-1.4,3.54,3.54,0,0,1,3,1.3,4.86,4.86,0,0,1,1.1,3.3v1h-7a3.67,3.67,0,0,0,.9,2.7,3.24,3.24,0,0,0,2.4.9,7.11,7.11,0,0,0,3.2-.7v1.4a13.13,13.13,0,0,1-1.5.5C741.3,177.2,740.7,177.3,740,177.3Zm-.4-9.3a2.79,2.79,0,0,0-2,.8,3.69,3.69,0,0,0-.9,2.2H742a3.4,3.4,0,0,0-.6-2.2A2.2,2.2,0,0,0,739.6,168Z"/><circle class="cls-7" cx="601.2" cy="169.8" r="7.7"/><path class="cls-9" d="M624.8,207.4l-4.6-12h-.1c.1,1,.1,2.1.1,3.4v8.6h-1.5V193.8h2.4l4.3,11.2h.1l4.3-11.2h2.4v13.6h-1.6v-8.7c0-1,0-2.1.1-3.3h-.1l-4.6,12Z"/><path class="cls-9" d="M644.4,202.4a5.26,5.26,0,0,1-1.3,3.9,4.67,4.67,0,0,1-3.5,1.4,4.75,4.75,0,0,1-2.4-.6,3.53,3.53,0,0,1-1.6-1.8,6.09,6.09,0,0,1-.6-2.8,5.87,5.87,0,0,1,1.2-3.9,4.51,4.51,0,0,1,3.5-1.4,4.44,4.44,0,0,1,3.4,1.4A5.44,5.44,0,0,1,644.4,202.4Zm-7.7,0a5.1,5.1,0,0,0,.8,3,3.14,3.14,0,0,0,4.6,0,5.1,5.1,0,0,0,.8-3,4.56,4.56,0,0,0-.8-2.9,3.14,3.14,0,0,0-4.6,0A4.56,4.56,0,0,0,636.7,202.4Z"/><path class="cls-9" d="M654,207.4v-6.6a2.88,2.88,0,0,0-.6-1.9,2.44,2.44,0,0,0-1.8-.6,2.74,2.74,0,0,0-2.3.9,4.28,4.28,0,0,0-.7,2.8v5.3h-1.5V197.1h1.3l.3,1.4h.1a3.74,3.74,0,0,1,1.3-1.2,4.77,4.77,0,0,1,4.7.5,3.4,3.4,0,0,1,.9,2.8v6.6H654Z"/><path class="cls-9" d="M658.4,194.5a1,1,0,0,1,.3-.8.73.73,0,0,1,.6-.2.71.71,0,0,1,.6.3,1,1,0,0,1,.3.8,1.14,1.14,0,0,1-.3.8.86.86,0,0,1-.6.3.6.6,0,0,1-.6-.3A1.4,1.4,0,0,1,658.4,194.5Zm1.6,12.9h-1.5V197.2H660Z"/><path class="cls-9" d="M666.7,206.4a2.2,2.2,0,0,0,.8-.1,3.54,3.54,0,0,0,.6-.1v1.2a6.39,6.39,0,0,1-.7.2,2.77,2.77,0,0,1-.9.1c-2,0-3-1-3-3.1v-6H662v-.7l1.5-.6.6-2.2h.9v2.4h3v1.2h-3v6a2,2,0,0,0,.4,1.4C665.7,206.4,666.1,206.4,666.7,206.4Z"/><path class="cls-9" d="M678.6,202.4a5.26,5.26,0,0,1-1.3,3.9,4.67,4.67,0,0,1-3.5,1.4,4.75,4.75,0,0,1-2.4-.6,4,4,0,0,1-1.6-1.8,6.09,6.09,0,0,1-.6-2.8,5.87,5.87,0,0,1,1.2-3.9,4.2,4.2,0,0,1,3.5-1.4,4.44,4.44,0,0,1,3.4,1.4A5,5,0,0,1,678.6,202.4Zm-7.7,0a5.1,5.1,0,0,0,.8,3,3.14,3.14,0,0,0,4.6,0,5.1,5.1,0,0,0,.8-3,4.56,4.56,0,0,0-.8-2.9,2.93,2.93,0,0,0-2.3-1,2.64,2.64,0,0,0-2.3,1A3.88,3.88,0,0,0,670.9,202.4Z"/><path class="cls-9" d="M685.8,197.1a4.12,4.12,0,0,1,1.2.1l-.2,1.4a4.49,4.49,0,0,0-1.1-.1,2.64,2.64,0,0,0-2.1,1,3.66,3.66,0,0,0-.9,2.5v5.5h-1.5V197.3h1.3l.2,1.9h.1a3.42,3.42,0,0,1,1.4-1.5A2.27,2.27,0,0,1,685.8,197.1Z"/><path class="cls-9" d="M688.9,194.5a1,1,0,0,1,.3-.8.73.73,0,0,1,.6-.2.71.71,0,0,1,.6.3,1.49,1.49,0,0,1,.3.8,1.14,1.14,0,0,1-.3.8.86.86,0,0,1-.6.3.6.6,0,0,1-.6-.3A1.4,1.4,0,0,1,688.9,194.5Zm1.7,12.9h-1.5V197.2h1.5Z"/><path class="cls-9" d="M700.6,207.4v-6.6a2.88,2.88,0,0,0-.6-1.9,2.1,2.1,0,0,0-1.8-.6,2.74,2.74,0,0,0-2.3.9,4.28,4.28,0,0,0-.7,2.8v5.3h-1.5V197.1H695l.3,1.4h.1a3.74,3.74,0,0,1,1.3-1.2,4.77,4.77,0,0,1,4.7.5,3.77,3.77,0,0,1,.9,2.8v6.6h-1.7Z"/><path class="cls-9" d="M713.5,197.3v1l-1.9.2a5.58,5.58,0,0,1,.5.8,3.73,3.73,0,0,1,.2,1.2,3,3,0,0,1-1,2.4,4.1,4.1,0,0,1-2.8.9,2.77,2.77,0,0,1-.9-.1,1.44,1.44,0,0,0-1,1.3.6.6,0,0,0,.3.6,2.87,2.87,0,0,0,1.2.2h1.8a3.73,3.73,0,0,1,2.5.7,2.38,2.38,0,0,1,.9,2,3,3,0,0,1-1.4,2.6,7.18,7.18,0,0,1-4,.9,5.48,5.48,0,0,1-3.1-.7,2.48,2.48,0,0,1-1.1-2.1,2.27,2.27,0,0,1,.6-1.6,2.59,2.59,0,0,1,1.7-.9,1.79,1.79,0,0,1-.7-.5,1.22,1.22,0,0,1-.3-.9,1.69,1.69,0,0,1,.3-1,3.63,3.63,0,0,1,.9-.8,2.76,2.76,0,0,1-1.3-1.1,3.45,3.45,0,0,1-.5-1.8,3.25,3.25,0,0,1,1-2.6,4.1,4.1,0,0,1,2.8-.9,5.9,5.9,0,0,1,1.4.2h3.9Zm-8.1,11.9a1.46,1.46,0,0,0,.7,1.3,3.74,3.74,0,0,0,2,.4,5.7,5.7,0,0,0,2.9-.6,1.8,1.8,0,0,0,.9-1.6,1.17,1.17,0,0,0-.5-1.1,4.09,4.09,0,0,0-1.9-.3h-1.8a2.54,2.54,0,0,0-1.6.5A1.61,1.61,0,0,0,705.4,209.2Zm.8-8.7a2,2,0,0,0,.6,1.6,2.31,2.31,0,0,0,1.7.5c1.5,0,2.3-.7,2.3-2.2a2.06,2.06,0,0,0-2.3-2.3,2.35,2.35,0,0,0-1.7.6A2.61,2.61,0,0,0,706.2,200.5Z"/><path class="cls-9" d="M624.9,230.2l-.3-1.4h-.1a4.36,4.36,0,0,1-1.5,1.3,5,5,0,0,1-1.9.3,3.65,3.65,0,0,1-2.4-.8,2.79,2.79,0,0,1-.9-2.2c0-2.1,1.6-3.1,4.9-3.2l1.7-.1v-.6a3,3,0,0,0-.5-1.8,2,2,0,0,0-1.6-.6,7.49,7.49,0,0,0-2.9.8l-.5-1.2a4.42,4.42,0,0,1,1.6-.6,5.54,5.54,0,0,1,1.8-.2,4.14,4.14,0,0,1,2.7.8,3.27,3.27,0,0,1,.9,2.6v6.9Zm-3.5-1a3.37,3.37,0,0,0,2.3-.8,3.11,3.11,0,0,0,.8-2.2v-.9l-1.5.1a4.33,4.33,0,0,0-2.6.6,1.82,1.82,0,0,0-.8,1.6,1.73,1.73,0,0,0,.5,1.3A3.07,3.07,0,0,0,621.4,229.2Z"/><path class="cls-9" d="M636,230.2v-6.6a2.88,2.88,0,0,0-.6-1.9,2.44,2.44,0,0,0-1.8-.6,2.74,2.74,0,0,0-2.3.9,4.28,4.28,0,0,0-.7,2.8v5.3h-1.5V219.9h1.3l.3,1.4h.1a3.74,3.74,0,0,1,1.3-1.2,4.77,4.77,0,0,1,4.7.5,3.77,3.77,0,0,1,.9,2.8V230H636Z"/><path class="cls-9" d="M647.5,228.9h0a4,4,0,0,1-3.3,1.5,3.81,3.81,0,0,1-3.1-1.4,7.46,7.46,0,0,1,0-7.8,4.15,4.15,0,0,1,6.3.1h.1l-.1-.7v-4.8h1.5v14.4h-1.3Zm-3,.2a2.74,2.74,0,0,0,2.3-.9,4.28,4.28,0,0,0,.7-2.8v-.3a5.07,5.07,0,0,0-.7-3.1,2.74,2.74,0,0,0-2.3-.9,2.48,2.48,0,0,0-2.1,1.1,5.13,5.13,0,0,0-.7,3,4.6,4.6,0,0,0,.7,2.9A2.18,2.18,0,0,0,644.5,229.1Z"/><path class="cls-9" d="M660.5,229.2a2.2,2.2,0,0,0,.8-.1,3.54,3.54,0,0,0,.6-.1v1.2a6.39,6.39,0,0,1-.7.2,2.77,2.77,0,0,1-.9.1c-2,0-3-1-3-3.1v-6h-1.5v-.9l1.5-.6.6-2.2h.9v2.4h3v1.2h-3v6a2,2,0,0,0,.4,1.4A2.11,2.11,0,0,0,660.5,229.2Z"/><path class="cls-9" d="M668.6,219.9a4.12,4.12,0,0,1,1.2.1l-.2,1.4a4.49,4.49,0,0,0-1.1-.1,2.64,2.64,0,0,0-2.1,1,3.66,3.66,0,0,0-.9,2.5v5.5H664V220.1h1.3l.2,1.9h.1a3.42,3.42,0,0,1,1.4-1.5A2,2,0,0,1,668.6,219.9Z"/><path class="cls-9" d="M677.8,230.2l-.3-1.4h-.1a4.36,4.36,0,0,1-1.5,1.3,5,5,0,0,1-1.9.3,3.65,3.65,0,0,1-2.4-.8,2.79,2.79,0,0,1-.9-2.2c0-2.1,1.6-3.1,4.9-3.2l1.7-.1v-.6a3,3,0,0,0-.5-1.8,2,2,0,0,0-1.6-.6,7.49,7.49,0,0,0-2.9.8l-.5-1.2a4.42,4.42,0,0,1,1.6-.6,5.54,5.54,0,0,1,1.8-.2,4.14,4.14,0,0,1,2.7.8,3.27,3.27,0,0,1,.9,2.6v6.9Zm-3.5-1a3.37,3.37,0,0,0,2.3-.8,3.11,3.11,0,0,0,.8-2.2v-.9l-1.5.1a4.33,4.33,0,0,0-2.6.6,1.82,1.82,0,0,0-.8,1.6,1.73,1.73,0,0,0,.5,1.3A3.07,3.07,0,0,0,674.3,229.2Z"/><path class="cls-9" d="M686.1,230.4a4.29,4.29,0,0,1-3.4-1.4,5.59,5.59,0,0,1-1.2-3.8,5.69,5.69,0,0,1,1.2-3.9,4.51,4.51,0,0,1,3.5-1.4,7.72,7.72,0,0,1,1.5.2,3.37,3.37,0,0,1,1.2.4l-.5,1.3c-.3-.1-.7-.2-1.1-.3a4.49,4.49,0,0,0-1.1-.1c-2.1,0-3.1,1.3-3.1,4a5,5,0,0,0,.8,2.9,2.57,2.57,0,0,0,2.2,1,8.51,8.51,0,0,0,2.6-.5v1.4A19.68,19.68,0,0,1,686.1,230.4Z"/><path class="cls-9" d="M692.4,225q.45-.6,1.2-1.5l3.3-3.5h1.8l-4.1,4.3,4.4,5.8h-1.9l-3.6-4.8-1.2,1v3.8h-1.5V215.7h1.5v7.7a7.12,7.12,0,0,1,.1,1.6Z"/><path class="cls-9" d="M700.9,217.3a1,1,0,0,1,.3-.8.73.73,0,0,1,.6-.2.71.71,0,0,1,.6.3,1.49,1.49,0,0,1,.3.8,1.14,1.14,0,0,1-.3.8.86.86,0,0,1-.6.3.6.6,0,0,1-.6-.3A1.4,1.4,0,0,1,700.9,217.3Zm1.7,12.9h-1.5V220h1.5Z"/><path class="cls-9" d="M712.6,230.2v-6.6a2.88,2.88,0,0,0-.6-1.9,2.44,2.44,0,0,0-1.8-.6,2.74,2.74,0,0,0-2.3.9,4.28,4.28,0,0,0-.7,2.8v5.3h-1.5V219.9H707l.3,1.4h.1a3.74,3.74,0,0,1,1.3-1.2,4.77,4.77,0,0,1,4.7.5,3.77,3.77,0,0,1,.9,2.8V230h-1.7Z"/><path class="cls-9" d="M725.5,220.1v1l-1.9.2a5.58,5.58,0,0,1,.5.8,3.73,3.73,0,0,1,.2,1.2,3,3,0,0,1-1,2.4,4.1,4.1,0,0,1-2.8.9,2.77,2.77,0,0,1-.9-.1,1.44,1.44,0,0,0-1,1.3.6.6,0,0,0,.3.6,2.87,2.87,0,0,0,1.2.2h1.8a3.73,3.73,0,0,1,2.5.7,2.38,2.38,0,0,1,.9,2,3,3,0,0,1-1.4,2.6,7.18,7.18,0,0,1-4,.9,5.48,5.48,0,0,1-3.1-.7,2.48,2.48,0,0,1-1.1-2.1,2.27,2.27,0,0,1,.6-1.6,2.59,2.59,0,0,1,1.7-.9,1.79,1.79,0,0,1-.7-.5,1.22,1.22,0,0,1-.3-.9,1.69,1.69,0,0,1,.3-1,3.63,3.63,0,0,1,.9-.8,2.76,2.76,0,0,1-1.3-1.1,3.45,3.45,0,0,1-.5-1.8,3.25,3.25,0,0,1,1-2.6,4.1,4.1,0,0,1,2.8-.9,5.9,5.9,0,0,1,1.4.2h3.9ZM717.4,232a1.36,1.36,0,0,0,.7,1.3,3.74,3.74,0,0,0,2,.4,5.46,5.46,0,0,0,2.9-.6,1.8,1.8,0,0,0,.9-1.6,1.17,1.17,0,0,0-.5-1.1,4.09,4.09,0,0,0-1.9-.3h-1.8a2.54,2.54,0,0,0-1.6.5A1.61,1.61,0,0,0,717.4,232Zm.8-8.7a2,2,0,0,0,.6,1.6,2.31,2.31,0,0,0,1.7.5c1.5,0,2.3-.7,2.3-2.2a2.06,2.06,0,0,0-2.3-2.3,2.35,2.35,0,0,0-1.7.6A2.61,2.61,0,0,0,718.2,223.3Z"/><circle class="cls-7" cx="601.2" cy="200.1" r="7.7"/><path class="cls-9" d="M624.8,261.3l-4.6-12h-.1c.1,1,.1,2.1.1,3.4v8.6h-1.5V247.7h2.4l4.3,11.2h.1l4.3-11.2h2.4v13.6h-1.6v-8.8c0-1,0-2.1.1-3.3h-.1l-4.6,12h-1.2Z"/><path class="cls-9" d="M641.8,261.3l-.3-1.4h-.1a4.36,4.36,0,0,1-1.5,1.3,5,5,0,0,1-1.9.3,3.65,3.65,0,0,1-2.4-.8,2.79,2.79,0,0,1-.9-2.2c0-2.1,1.6-3.1,4.9-3.2l1.7-.1v-.6a3,3,0,0,0-.5-1.8,2,2,0,0,0-1.6-.6,7.49,7.49,0,0,0-2.9.8l-.5-1.2a4.42,4.42,0,0,1,1.6-.6,5.54,5.54,0,0,1,1.8-.2,4.14,4.14,0,0,1,2.7.8,3.27,3.27,0,0,1,.9,2.6v6.9Zm-3.5-1.1a3.37,3.37,0,0,0,2.3-.8,3.11,3.11,0,0,0,.8-2.2v-.9l-1.5.1a4.33,4.33,0,0,0-2.6.6,1.82,1.82,0,0,0-.8,1.6,1.73,1.73,0,0,0,.5,1.3A3.55,3.55,0,0,0,638.3,260.2Z"/><path class="cls-9" d="M645.8,248.4a1,1,0,0,1,.3-.8.73.73,0,0,1,.6-.2.71.71,0,0,1,.6.3,1.49,1.49,0,0,1,.3.8,1.14,1.14,0,0,1-.3.8.86.86,0,0,1-.6.3.6.6,0,0,1-.6-.3A1.61,1.61,0,0,1,645.8,248.4Zm1.7,12.9H646V251.1h1.5Z"/><path class="cls-9" d="M657.5,261.3v-6.6a2.88,2.88,0,0,0-.6-1.9,2.44,2.44,0,0,0-1.8-.6,2.74,2.74,0,0,0-2.3.9,4.28,4.28,0,0,0-.7,2.8v5.3h-1.5V251h1.3l.3,1.4h.1a3.74,3.74,0,0,1,1.3-1.2,4.77,4.77,0,0,1,4.7.5,3.4,3.4,0,0,1,.9,2.8v6.6h-1.7Z"/><path class="cls-9" d="M665.4,260.2a2.2,2.2,0,0,0,.8-.1,3.54,3.54,0,0,0,.6-.1v1.2a6.39,6.39,0,0,1-.7.2,2.77,2.77,0,0,1-.9.1c-2,0-3-1-3-3.1v-6h-1.5v-.7l1.5-.6.6-2.2h.9v2.4h3v1.2h-3v6a2,2,0,0,0,.4,1.4A5,5,0,0,0,665.4,260.2Z"/><path class="cls-9" d="M672.9,261.5a4.9,4.9,0,0,1-3.6-1.4,5.17,5.17,0,0,1-1.3-3.8,6.05,6.05,0,0,1,1.2-3.9,3.92,3.92,0,0,1,3.3-1.4,3.54,3.54,0,0,1,3,1.3,4.86,4.86,0,0,1,1.1,3.3v1h-7a3.67,3.67,0,0,0,.9,2.7,3.24,3.24,0,0,0,2.4.9,7.11,7.11,0,0,0,3.2-.7v1.4a13.13,13.13,0,0,1-1.5.5C674.2,261.4,673.6,261.5,672.9,261.5Zm-.4-9.3a2.79,2.79,0,0,0-2,.8,3.69,3.69,0,0,0-.9,2.2h5.3a3.4,3.4,0,0,0-.6-2.2A2.07,2.07,0,0,0,672.5,252.2Z"/><path class="cls-9" d="M686.2,261.3v-6.6a2.88,2.88,0,0,0-.6-1.9,2.1,2.1,0,0,0-1.8-.6,2.74,2.74,0,0,0-2.3.9,4.28,4.28,0,0,0-.7,2.8v5.3h-1.5V251h1.3l.3,1.4h.1a3.74,3.74,0,0,1,1.3-1.2,4.77,4.77,0,0,1,4.7.5,3.77,3.77,0,0,1,.9,2.8v6.6h-1.7Z"/><path class="cls-9" d="M696.9,261.3l-.3-1.4h-.1a4.36,4.36,0,0,1-1.5,1.3,5,5,0,0,1-1.9.3,3.65,3.65,0,0,1-2.4-.8,2.79,2.79,0,0,1-.9-2.2c0-2.1,1.6-3.1,4.9-3.2l1.7-.1v-.6a3,3,0,0,0-.5-1.8,2,2,0,0,0-1.6-.6,7.49,7.49,0,0,0-2.9.8l-.5-1.2a4.42,4.42,0,0,1,1.6-.6,5.54,5.54,0,0,1,1.8-.2,4.14,4.14,0,0,1,2.7.8,3.27,3.27,0,0,1,.9,2.6v6.9Zm-3.4-1.1a3.37,3.37,0,0,0,2.3-.8,3.11,3.11,0,0,0,.8-2.2v-.9l-1.5.1a4.33,4.33,0,0,0-2.6.6,1.82,1.82,0,0,0-.8,1.6,1.73,1.73,0,0,0,.5,1.3A3.07,3.07,0,0,0,693.5,260.2Z"/><path class="cls-9" d="M708.1,261.3v-6.6a2.88,2.88,0,0,0-.6-1.9,2.44,2.44,0,0,0-1.8-.6,2.74,2.74,0,0,0-2.3.9,4.28,4.28,0,0,0-.7,2.8v5.3h-1.5V251h1.3l.3,1.4h.1a3.74,3.74,0,0,1,1.3-1.2,4.77,4.77,0,0,1,4.7.5,3.4,3.4,0,0,1,.9,2.8v6.6h-1.7Z"/><path class="cls-9" d="M716.7,261.5a4.29,4.29,0,0,1-3.4-1.4,5.59,5.59,0,0,1-1.2-3.8,5.69,5.69,0,0,1,1.2-3.9,4.51,4.51,0,0,1,3.5-1.4,7.72,7.72,0,0,1,1.5.2,3.37,3.37,0,0,1,1.2.4l-.5,1.3c-.3-.1-.7-.2-1.1-.3a4.49,4.49,0,0,0-1.1-.1c-2.1,0-3.1,1.3-3.1,4a5,5,0,0,0,.8,2.9,2.57,2.57,0,0,0,2.2,1,8.51,8.51,0,0,0,2.6-.5v1.4C718.6,261.3,717.8,261.5,716.7,261.5Z"/><path class="cls-9" d="M725.7,261.5a4.9,4.9,0,0,1-3.6-1.4,5.17,5.17,0,0,1-1.3-3.8,6.05,6.05,0,0,1,1.2-3.9,3.92,3.92,0,0,1,3.3-1.4,3.54,3.54,0,0,1,3,1.3,4.86,4.86,0,0,1,1.1,3.3v1h-7a3.67,3.67,0,0,0,.9,2.7,3.24,3.24,0,0,0,2.4.9,7.11,7.11,0,0,0,3.2-.7v1.4a13.13,13.13,0,0,1-1.5.5C727,261.4,726.4,261.5,725.7,261.5Zm-.4-9.3a2.79,2.79,0,0,0-2,.8,3.69,3.69,0,0,0-.9,2.2h5.3a3.4,3.4,0,0,0-.6-2.2A2.2,2.2,0,0,0,725.3,252.2Z"/><path class="cls-9" d="M733.6,259.1l.1.2c-.2.6-.4,1.3-.7,2.2s-.6,1.6-.9,2.3h-1.2a20.74,20.74,0,0,0,.6-2.4c.2-.9.3-1.7.4-2.3Z"/><path class="cls-9" d="M623.3,284.3a3.42,3.42,0,0,1-1.8-.4,3.6,3.6,0,0,1-1.4-1.1H620a10.29,10.29,0,0,1,.1,1.7v4.2h-1.5V274h1.3l.2,1.4h.1a3.13,3.13,0,0,1,1.4-1.2,4.78,4.78,0,0,1,1.8-.4,3.81,3.81,0,0,1,3.1,1.4,7.46,7.46,0,0,1,0,7.8A4.28,4.28,0,0,1,623.3,284.3Zm-.2-9.3a2.87,2.87,0,0,0-2.3.9,4.15,4.15,0,0,0-.7,2.7v.3a5.07,5.07,0,0,0,.7,3.1,2.74,2.74,0,0,0,2.3.9,2.48,2.48,0,0,0,2.1-1.1,5,5,0,0,0,.7-2.9,4.79,4.79,0,0,0-.7-2.9A2.66,2.66,0,0,0,623.1,275Z"/><path class="cls-9" d="M634.8,273.7a4.12,4.12,0,0,1,1.2.1l-.2,1.4a4.49,4.49,0,0,0-1.1-.1,2.64,2.64,0,0,0-2.1,1,3.66,3.66,0,0,0-.9,2.5v5.5h-1.5V273.9h1.3l.2,1.9h.1a3.42,3.42,0,0,1,1.4-1.5A2.11,2.11,0,0,1,634.8,273.7Z"/><path class="cls-9" d="M642,284.3a4.9,4.9,0,0,1-3.6-1.4,5.17,5.17,0,0,1-1.3-3.8,6.05,6.05,0,0,1,1.2-3.9,3.92,3.92,0,0,1,3.3-1.4,3.54,3.54,0,0,1,3,1.3,4.86,4.86,0,0,1,1.1,3.3v1h-7a3.67,3.67,0,0,0,.9,2.7,3.24,3.24,0,0,0,2.4.9,7.11,7.11,0,0,0,3.2-.7v1.4a13.13,13.13,0,0,1-1.5.5C643.2,284.2,642.7,284.3,642,284.3Zm-.4-9.3a2.79,2.79,0,0,0-2,.8,3.69,3.69,0,0,0-.9,2.2H644a3.4,3.4,0,0,0-.6-2.2A2.2,2.2,0,0,0,641.6,275Z"/><path class="cls-9" d="M655.2,282.7h0a4,4,0,0,1-3.3,1.5,3.81,3.81,0,0,1-3.1-1.4,7.46,7.46,0,0,1,0-7.8,4.15,4.15,0,0,1,6.3.1h.1l-.1-.7v-4.8h1.5V284h-1.1Zm-3,.3a2.74,2.74,0,0,0,2.3-.9,4.28,4.28,0,0,0,.7-2.8V279a5.07,5.07,0,0,0-.7-3.1,2.74,2.74,0,0,0-2.3-.9,2.48,2.48,0,0,0-2.1,1.1,5.13,5.13,0,0,0-.7,3,4.6,4.6,0,0,0,.7,2.9A2.52,2.52,0,0,0,652.2,283Z"/><path class="cls-9" d="M659.7,271.2a1,1,0,0,1,.3-.8.73.73,0,0,1,.6-.2.71.71,0,0,1,.6.3,1.49,1.49,0,0,1,.3.8,1.14,1.14,0,0,1-.3.8.86.86,0,0,1-.6.3.6.6,0,0,1-.6-.3A1.1,1.1,0,0,1,659.7,271.2Zm1.6,12.9h-1.5V273.9h1.5Z"/><path class="cls-9" d="M668.5,284.3a4.29,4.29,0,0,1-3.4-1.4,5.59,5.59,0,0,1-1.2-3.8,5.69,5.69,0,0,1,1.2-3.9,4.51,4.51,0,0,1,3.5-1.4,7.72,7.72,0,0,1,1.5.2,3.37,3.37,0,0,1,1.2.4l-.5,1.3c-.3-.1-.7-.2-1.1-.3a4.49,4.49,0,0,0-1.1-.1c-2.1,0-3.1,1.3-3.1,4a5,5,0,0,0,.8,2.9,2.57,2.57,0,0,0,2.2,1,8.51,8.51,0,0,0,2.6-.5v1.4C670.4,284.1,669.5,284.3,668.5,284.3Z"/><path class="cls-9" d="M677.3,283a2.2,2.2,0,0,0,.8-.1,3.54,3.54,0,0,0,.6-.1V284a6.39,6.39,0,0,1-.7.2,2.77,2.77,0,0,1-.9.1c-2,0-3-1-3-3.1v-6h-1.5v-.7l1.5-.6.6-2.2h.9v2.4h3v1.2h-3v6a2,2,0,0,0,.4,1.4A5,5,0,0,0,677.3,283Z"/><path class="cls-9" d="M680.7,271.2a1,1,0,0,1,.3-.8.73.73,0,0,1,.6-.2.71.71,0,0,1,.6.3,1,1,0,0,1,.3.8,1.14,1.14,0,0,1-.3.8.86.86,0,0,1-.6.3.6.6,0,0,1-.6-.3A2.39,2.39,0,0,1,680.7,271.2Zm1.6,12.9h-1.5V273.9h1.5Z"/><path class="cls-9" d="M688,284.1l-3.9-10.2h1.7l2.2,6q.75,2.1.9,2.7h.1c.1-.3.3-1,.6-2s1.2-3.3,2.4-6.7h1.7l-3.9,10.2Z"/><path class="cls-9" d="M699.5,284.3a4.9,4.9,0,0,1-3.6-1.4,5.17,5.17,0,0,1-1.3-3.8,6.05,6.05,0,0,1,1.2-3.9,3.92,3.92,0,0,1,3.3-1.4,3.54,3.54,0,0,1,3,1.3,4.86,4.86,0,0,1,1.1,3.3v1h-7a3.67,3.67,0,0,0,.9,2.7,3.24,3.24,0,0,0,2.4.9,7.11,7.11,0,0,0,3.2-.7v1.4a13.13,13.13,0,0,1-1.5.5C700.7,284.2,700.2,284.3,699.5,284.3Zm-.4-9.3a2.79,2.79,0,0,0-2,.8,3.69,3.69,0,0,0-.9,2.2h5.3a3.4,3.4,0,0,0-.6-2.2A2.2,2.2,0,0,0,699.1,275Z"/><path class="cls-9" d="M631.6,306.9v-6.6a3,3,0,0,0-.5-1.8,2,2,0,0,0-1.6-.6,2.56,2.56,0,0,0-2.1.8,3.73,3.73,0,0,0-.7,2.5v5.7h-1.5v-6.6a3,3,0,0,0-.5-1.8,2,2,0,0,0-1.6-.6,2.34,2.34,0,0,0-2.1.9,5,5,0,0,0-.7,2.8v5.3h-1.5V296.7h1.3l.3,1.4h.1a3.17,3.17,0,0,1,3-1.6,3.05,3.05,0,0,1,3.1,1.7h.1a3.25,3.25,0,0,1,1.3-1.3,4.23,4.23,0,0,1,2-.5,3.42,3.42,0,0,1,2.6.9,3.77,3.77,0,0,1,.9,2.8v6.6h-1.9Z"/><path class="cls-9" d="M642.4,306.9l-.3-1.4H642a4.36,4.36,0,0,1-1.5,1.3,5,5,0,0,1-1.9.3,3.65,3.65,0,0,1-2.4-.8,2.79,2.79,0,0,1-.9-2.2c0-2.1,1.6-3.1,4.9-3.2l1.7-.1v-.6a3,3,0,0,0-.5-1.8,2,2,0,0,0-1.6-.6,7.49,7.49,0,0,0-2.9.8l-.5-1.2a4.42,4.42,0,0,1,1.6-.6,5.54,5.54,0,0,1,1.8-.2,4.14,4.14,0,0,1,2.7.8,3.27,3.27,0,0,1,.9,2.6v6.9Zm-3.5-1.1a3.37,3.37,0,0,0,2.3-.8,3.11,3.11,0,0,0,.8-2.2v-.9l-1.5.1a4.33,4.33,0,0,0-2.6.6,1.82,1.82,0,0,0-.8,1.6,1.73,1.73,0,0,0,.5,1.3C637.9,305.8,638.3,305.8,638.9,305.8Z"/><path class="cls-9" d="M646.4,294a1,1,0,0,1,.3-.8.73.73,0,0,1,.6-.2.71.71,0,0,1,.6.3,1,1,0,0,1,.3.8,1.14,1.14,0,0,1-.3.8.86.86,0,0,1-.6.3.6.6,0,0,1-.6-.3A2.39,2.39,0,0,1,646.4,294Zm1.6,12.9h-1.5V296.7H648Z"/><path class="cls-9" d="M658.1,306.9v-6.6a2.88,2.88,0,0,0-.6-1.9,2.1,2.1,0,0,0-1.8-.6,2.74,2.74,0,0,0-2.3.9,4.28,4.28,0,0,0-.7,2.8v5.3h-1.5V296.6h1.3l.3,1.4h.1a3.74,3.74,0,0,1,1.3-1.2,3.81,3.81,0,0,1,1.9-.4,4.1,4.1,0,0,1,2.8.9,3.77,3.77,0,0,1,.9,2.8v6.6h-1.7Z"/><path class="cls-9" d="M666,305.8a2.2,2.2,0,0,0,.8-.1,1.76,1.76,0,0,1,.6-.1v1.2a6.39,6.39,0,0,1-.7.2,2.77,2.77,0,0,1-.9.1c-2,0-3-1-3-3.1v-6h-1.5v-.7l1.5-.6.6-2.2h.9v2.4h3v1.2h-3v6a2,2,0,0,0,.4,1.4A1.81,1.81,0,0,0,666,305.8Z"/><path class="cls-9" d="M673.5,307.1a4.9,4.9,0,0,1-3.6-1.4,5.17,5.17,0,0,1-1.3-3.8,6.05,6.05,0,0,1,1.2-3.9,3.92,3.92,0,0,1,3.3-1.4,3.54,3.54,0,0,1,3,1.3,4.86,4.86,0,0,1,1.1,3.3v1h-7a3.67,3.67,0,0,0,.9,2.7,3.24,3.24,0,0,0,2.4.9,7.11,7.11,0,0,0,3.2-.7v1.4a13.13,13.13,0,0,1-1.5.5C674.8,307,674.2,307.1,673.5,307.1Zm-.4-9.3a2.79,2.79,0,0,0-2,.8,3.69,3.69,0,0,0-.9,2.2h5.3a3.4,3.4,0,0,0-.6-2.2A2.2,2.2,0,0,0,673.1,297.8Z"/><path class="cls-9" d="M686.7,306.9v-6.6a2.88,2.88,0,0,0-.6-1.9,2.1,2.1,0,0,0-1.8-.6,2.74,2.74,0,0,0-2.3.9,4.28,4.28,0,0,0-.7,2.8v5.3h-1.5V296.6h1.3l.3,1.4h.1a3.74,3.74,0,0,1,1.3-1.2,3.81,3.81,0,0,1,1.9-.4,4.1,4.1,0,0,1,2.8.9,3.77,3.77,0,0,1,.9,2.8v6.6h-1.7Z"/><path class="cls-9" d="M697.5,306.9l-.3-1.4h-.1a4.36,4.36,0,0,1-1.5,1.3,5,5,0,0,1-1.9.3,3.65,3.65,0,0,1-2.4-.8,2.79,2.79,0,0,1-.9-2.2c0-2.1,1.6-3.1,4.9-3.2l1.7-.1v-.6a3,3,0,0,0-.5-1.8,2,2,0,0,0-1.6-.6,7.49,7.49,0,0,0-2.9.8l-.5-1.2a4.42,4.42,0,0,1,1.6-.6,5.54,5.54,0,0,1,1.8-.2,4.14,4.14,0,0,1,2.7.8,3.27,3.27,0,0,1,.9,2.6v6.9Zm-3.5-1.1a3.37,3.37,0,0,0,2.3-.8,3.11,3.11,0,0,0,.8-2.2v-.9l-1.5.1a4.33,4.33,0,0,0-2.6.6,1.82,1.82,0,0,0-.8,1.6,1.73,1.73,0,0,0,.5,1.3C693,305.8,693.4,305.8,694,305.8Z"/><path class="cls-9" d="M708.6,306.9v-6.6a2.88,2.88,0,0,0-.6-1.9,2.1,2.1,0,0,0-1.8-.6,2.74,2.74,0,0,0-2.3.9,4.28,4.28,0,0,0-.7,2.8v5.3h-1.5V296.6H703l.3,1.4h.1a3.74,3.74,0,0,1,1.3-1.2,3.81,3.81,0,0,1,1.9-.4,4.1,4.1,0,0,1,2.8.9,3.77,3.77,0,0,1,.9,2.8v6.6h-1.7Z"/><path class="cls-9" d="M717.3,307.1a4.29,4.29,0,0,1-3.4-1.4,5.59,5.59,0,0,1-1.2-3.8,5.69,5.69,0,0,1,1.2-3.9,4.51,4.51,0,0,1,3.5-1.4,7.72,7.72,0,0,1,1.5.2,3.37,3.37,0,0,1,1.2.4l-.5,1.3c-.3-.1-.7-.2-1.1-.3a4.49,4.49,0,0,0-1.1-.1c-2.1,0-3.1,1.3-3.1,4a5,5,0,0,0,.8,2.9,2.57,2.57,0,0,0,2.2,1,8.51,8.51,0,0,0,2.6-.5v1.4C719.2,306.9,718.3,307.1,717.3,307.1Z"/><path class="cls-9" d="M726.3,307.1a4.9,4.9,0,0,1-3.6-1.4,5.17,5.17,0,0,1-1.3-3.8,6.05,6.05,0,0,1,1.2-3.9,3.92,3.92,0,0,1,3.3-1.4,3.54,3.54,0,0,1,3,1.3,4.86,4.86,0,0,1,1.1,3.3v1h-7a3.67,3.67,0,0,0,.9,2.7,3.24,3.24,0,0,0,2.4.9,7.11,7.11,0,0,0,3.2-.7v1.4a13.13,13.13,0,0,1-1.5.5C727.6,307,727,307.1,726.3,307.1Zm-.4-9.3a2.79,2.79,0,0,0-2,.8,3.69,3.69,0,0,0-.9,2.2h5.3a3.4,3.4,0,0,0-.6-2.2A2.2,2.2,0,0,0,725.9,297.8Z"/><circle class="cls-7" cx="601.2" cy="256.8" r="7.7"/><path class="cls-8" d="M378.3,59.1,353.7,34.5a1.9,1.9,0,0,0-1.3-.5H339.5a2.11,2.11,0,0,0-1.3.5L335.7,37l-7.2-7.2a1.84,1.84,0,0,0-2.6,2.6l7.2,7.2-2.6,2.6a1.9,1.9,0,0,0-.5,1.3V56.4a1.9,1.9,0,0,0,.5,1.3l24.6,24.6a5.62,5.62,0,0,0,7.8,0l15.4-15.4A5.61,5.61,0,0,0,378.3,59.1ZM337.9,47.4a5.93,5.93,0,0,1,.5-2.3l1.2,1.2a1.84,1.84,0,1,0,2.6-2.6L341,42.5a4.71,4.71,0,0,1,2.4-.5,5.5,5.5,0,1,1,0,11A5.64,5.64,0,0,1,337.9,47.4Zm7.7,14.5-.4-.4a1.15,1.15,0,0,1,0-1.7l10.4-10.4a1.15,1.15,0,0,1,1.7,0l.4.4a1.15,1.15,0,0,1,0,1.7L347.3,61.9A1.15,1.15,0,0,1,345.6,61.9Zm23.5,5.7-3.8,1.2a.9.9,0,0,0-.6.6l-1.2,3.8a1,1,0,0,1-1.7.3l-2.3-3.3a.91.91,0,0,0-.8-.4l-4,.1a.94.94,0,0,1-.8-1.5l2.4-3.2a1,1,0,0,0,.1-.9l-1.3-3.8a.92.92,0,0,1,1.2-1.2l3.8,1.3a1.41,1.41,0,0,0,.9-.1l3.2-2.4a.94.94,0,0,1,1.5.8l-.1,4a.91.91,0,0,0,.4.8l3.3,2.3A.86.86,0,0,1,369.1,67.6Z"/></g></g></svg>